<svg width="16" height="16" viewBox="0 0 16 16" fill="none" xmlns="http://www.w3.org/2000/svg">
<g clip-path="url(#clip0_2143_85114)">
<path d="M10.584 3.88477C10.584 4.4152 10.7947 4.92391 11.1698 5.29898C11.5449 5.67405 12.0536 5.88477 12.584 5.88477C13.1144 5.88477 13.6231 5.67405 13.9982 5.29898C14.3733 4.92391 14.584 4.4152 14.584 3.88477C14.584 3.35433 14.3733 2.84563 13.9982 2.47055C13.6231 2.09548 13.1144 1.88477 12.584 1.88477C12.0536 1.88477 11.5449 2.09548 11.1698 2.47055C10.7947 2.84563 10.584 3.35433 10.584 3.88477Z" stroke="#070822" stroke-width="1.2" stroke-linecap="round" stroke-linejoin="round"/>
<path d="M6.08398 14.5C6.16866 14.7885 6.34449 15.0417 6.58515 15.2219C6.82578 15.4021 7.11838 15.4995 7.41898 15.4995C7.71958 15.4995 8.01218 15.4021 8.25278 15.2219C8.49345 15.0417 8.66932 14.7885 8.75398 14.5" stroke="#070822" stroke-width="1.2" stroke-linecap="round" stroke-linejoin="round"/>
<path d="M7.41602 2V0.5" stroke="#070822" stroke-width="1.2" stroke-linecap="round" stroke-linejoin="round"/>
<path d="M12.4313 7.97392C12.5573 11.8113 13.416 12.4999 13.416 12.4999H1.41602C1.41602 12.4999 2.41602 11.2226 2.41602 6.99992C2.41676 6.21658 2.60137 5.44438 2.95498 4.74542C3.30858 4.04647 3.82132 3.44028 4.45193 2.97562C5.08254 2.51096 5.81342 2.20082 6.58575 2.07014C7.35808 1.93946 8.15028 1.99189 8.89868 2.22322" stroke="#070822" stroke-width="1.2" stroke-linecap="round" stroke-linejoin="round"/>
</g>
<defs>
<clipPath id="clip0_2143_85114">
<rect width="16" height="16" fill="white"/>
</clipPath>
</defs>
</svg>
