<svg width="102" height="40" viewBox="0 0 102 40" fill="none" xmlns="http://www.w3.org/2000/svg">
<g clip-path="url(#clip0_1221_30966)">
<path d="M58.1817 12.9523C57.6862 13.4857 57.4194 14.1714 57.4194 14.8952V30.0952H62.7553V8.15234L58.1817 12.9523Z" fill="#5E5F6E"/>
<path d="M57.4194 1.02856V9.14285L62.7553 3.50476V1.02856H57.4194Z" fill="#5E5F6E"/>
<path d="M55.1327 11.1239C55.0184 6.51437 53.1127 4.64771 48.6154 4.64771C46.5191 4.64771 38.5535 4.6858 38.5535 4.6858V39.1239H43.775V29.981C44.6135 29.981 46.9003 30.0191 48.5772 30.0191C53.0746 30.0191 54.9421 28.1525 55.0565 23.5429C55.1327 23.4668 55.1327 11.2382 55.1327 11.1239ZM46.7859 25.7525C44.7659 25.7525 43.8131 25.7525 43.8131 24.0001V10.7048C43.8131 8.95247 44.7659 8.95247 46.7859 8.95247C48.7297 8.95247 49.7588 8.95247 49.7588 10.7048V24.0001C49.7969 25.7525 48.7297 25.7144 46.7859 25.7525Z" fill="#5E5F6E"/>
<path d="M36.3048 11.1239C36.1905 6.51437 34.2848 4.64771 29.7875 4.64771C27.6912 4.64771 19.7256 4.6858 19.7256 4.6858V39.1239H24.9471V29.981C25.7856 29.981 28.0724 30.0191 29.7494 30.0191C34.2467 30.0191 36.1143 28.1525 36.2286 23.5429C36.3048 23.4668 36.3048 11.2382 36.3048 11.1239ZM27.9962 25.7525C25.9762 25.7525 25.0233 25.7525 25.0233 24.0001V10.7048C25.0233 8.95247 25.9762 8.95247 27.9962 8.95247C29.9399 8.95247 30.969 8.95247 30.969 10.7048V24.0001C30.969 25.7525 29.9018 25.7144 27.9962 25.7525Z" fill="#5E5F6E"/>
<path d="M94.8466 30.0953V10.7429C94.8466 8.99055 93.7794 8.99055 91.8738 8.99055C89.8538 8.99055 88.901 8.99055 88.901 10.7429V30.0953H83.6794V4.72389H88.5198C88.5198 4.72389 91.5689 4.68579 93.6651 4.68579C98.1625 4.68579 100.03 6.55246 100.144 11.162C100.144 11.2763 100.144 30.0953 100.144 30.0953H94.8466Z" fill="#5E5F6E"/>
<path d="M81.3165 11.162C81.2022 6.55246 79.2965 4.68579 74.8373 4.68579C74.6086 4.68579 69.8444 4.68579 68.1674 4.68579V8.99055C73.084 8.99055 72.7791 8.99055 73.0078 8.99055C74.9516 8.99055 75.9806 8.99055 75.9806 10.7429V13.2572C75.0659 13.2572 72.8935 13.2191 71.2927 13.2191C66.7954 13.2191 64.9278 15.0858 64.8135 19.6953C64.8135 19.8096 64.8135 23.5429 64.8135 23.6572C64.9278 28.2667 66.8335 30.1334 71.2927 30.1334C73.3889 30.1334 81.3546 30.0953 81.3546 30.0953L81.3165 11.162ZM76.095 24.0382C76.095 25.7906 75.1422 25.7906 73.1222 25.7906C71.1784 25.7906 70.1493 25.7906 70.1493 24.0382V19.2382C70.1493 17.4858 71.2165 17.4858 73.1222 17.4858C75.1422 17.4858 76.095 17.4858 76.095 19.2382V24.0382Z" fill="#5E5F6E"/>
<path d="M17.4769 11.162C17.3626 6.55246 15.4569 4.68579 10.9977 4.68579C10.769 4.68579 4.32784 4.68579 4.32784 4.68579V8.99055C4.32784 8.99055 8.93954 8.99055 9.16822 8.99055C11.112 8.99055 12.141 8.99055 12.141 10.7429V13.2572C11.2263 13.2572 9.05388 13.2191 7.45312 13.2191C2.95576 13.2191 1.08822 15.0858 0.973877 19.6953C0.973877 19.8096 0.973877 23.5429 0.973877 23.6572C1.0501 28.0001 2.72708 29.8667 6.69086 30.0953L10.769 25.7525C10.3497 25.7906 9.85425 25.7906 9.24444 25.7906C7.30067 25.7906 6.27161 25.7906 6.27161 24.0382V19.2382C6.27161 17.4858 7.33878 17.4858 9.24444 17.4858C11.2644 17.4858 12.2173 17.4858 12.2173 19.2382V30.0572C12.4078 30.0572 17.4388 30.0572 17.4388 30.0572L17.4769 11.162Z" fill="#5E5F6E"/>
</g>
<defs>
<clipPath id="clip0_1221_30966">
<rect width="101" height="40" fill="white" transform="translate(0.097168)"/>
</clipPath>
</defs>
</svg>
