<svg width="20" height="20" viewBox="0 0 20 20" fill="none" xmlns="http://www.w3.org/2000/svg">
<path d="M9.10986 13.0058C8.89467 13.0058 8.72021 12.8314 8.72021 12.6162C8.72021 12.401 8.89467 12.2266 9.10986 12.2266" stroke="#5E5F6E"/>
<path d="M9.10986 13.0058C9.32505 13.0058 9.49951 12.8314 9.49951 12.6162C9.49951 12.401 9.32505 12.2266 9.10986 12.2266" stroke="#5E5F6E"/>
<path d="M9.10986 9.88886V6.77173" stroke="#5E5F6E" stroke-linecap="round" stroke-linejoin="round"/>
<path d="M15.1499 12.6755C15.2905 12.9565 15.357 13.2689 15.3429 13.5829C15.3289 13.8969 15.2347 14.202 15.0695 14.4695C14.9043 14.7368 14.6735 14.9575 14.3988 15.1106C14.1243 15.2635 13.8152 15.3439 13.5009 15.3438H4.71888C4.40457 15.3439 4.09545 15.2635 3.82094 15.1106C3.54632 14.9575 3.31544 14.7368 3.15023 14.4695C2.98503 14.202 2.89089 13.8969 2.87686 13.5829C2.86273 13.2689 2.92923 12.9565 3.06992 12.6755L7.46092 3.89451C7.61397 3.5881 7.84932 3.33052 8.14056 3.15045C8.43181 2.97038 8.76742 2.875 9.10989 2.875C9.45235 2.875 9.78797 2.97038 10.0792 3.15045C10.3705 3.33052 10.6058 3.5881 10.7589 3.89451L15.1499 12.6755Z" stroke="#5E5F6E" stroke-linecap="round" stroke-linejoin="round"/>
<path d="M10.2002 12.5315C10.2002 11.1334 11.3336 10 12.7317 10H14.3564C16.6519 10 18.5127 11.8608 18.5127 14.1562C18.5127 16.4517 16.6519 18.3125 14.3564 18.3125H12.593C11.2715 18.3125 10.2002 17.2412 10.2002 15.9197V12.5315Z" fill="#F4F4F6"/>
<path d="M12.7017 16.9587V10.95" stroke="#5E5F6E" stroke-linecap="round" stroke-linejoin="round"/>
<path d="M11.5 12.1522L12.7018 10.9504L13.9035 12.1522" stroke="#5E5F6E" stroke-linecap="round" stroke-linejoin="round"/>
<path d="M14.77 15H17.3052" stroke="#5E5F6E" stroke-linecap="round"/>
<path d="M14.77 13.4875H17.9747" stroke="#5E5F6E" stroke-linecap="round"/>
<path d="M14.77 16.6921H16.3724" stroke="#5E5F6E" stroke-linecap="round"/>
</svg>
