<svg width="183" height="36" viewBox="0 0 183 36" fill="none" xmlns="http://www.w3.org/2000/svg">
<g clip-path="url(#clip0_1221_31047)">
<path fill-rule="evenodd" clip-rule="evenodd" d="M177.51 27.3588C177.62 28.6122 178.623 30.2075 180.362 30.2075H181.379C181.774 30.2075 182.097 29.8846 182.097 29.4904V7.13983H182.093C182.072 6.7633 181.761 6.46172 181.379 6.46172H178.227C177.846 6.46172 177.535 6.7633 177.514 7.13983H177.51V8.95596C175.579 6.5777 172.534 5.59058 169.48 5.59058C162.539 5.59058 156.913 11.2157 156.913 18.1552C156.913 25.0949 162.539 30.7202 169.48 30.7202V30.7209C172.534 30.7209 175.861 29.5366 177.509 27.3559L177.51 27.3588ZM169.492 26.3228C165.078 26.3228 161.499 22.6664 161.499 18.1552C161.499 13.6448 165.078 9.98812 169.492 9.98812C173.906 9.98812 177.485 13.6448 177.485 18.1552C177.485 22.6664 173.906 26.3228 169.492 26.3228Z" fill="#5E5F6E"/>
<path fill-rule="evenodd" clip-rule="evenodd" d="M152.928 28.1275L152.926 16.562H152.927C152.927 10.0426 148.813 5.64453 142.253 5.64453C139.121 5.64453 136.554 7.45493 135.648 9.01009C135.452 7.79408 134.806 6.51588 132.803 6.51588H131.783C131.388 6.51588 131.065 6.839 131.065 7.23328V27.4147C131.065 27.4153 131.065 27.4169 131.065 27.4178V29.5856H131.069C131.09 29.9616 131.402 30.2636 131.783 30.2636H134.935C134.984 30.2636 135.031 30.2578 135.077 30.2489C135.097 30.2449 135.117 30.2367 135.137 30.2309C135.161 30.2238 135.185 30.2182 135.207 30.2091C135.235 30.1975 135.261 30.1818 135.287 30.1673C135.3 30.1595 135.313 30.154 135.325 30.1456C135.357 30.1255 135.386 30.1011 135.414 30.0762C135.418 30.0715 135.424 30.0685 135.428 30.0644C135.459 30.034 135.488 30.0005 135.514 29.9658C135.514 29.9653 135.514 29.9653 135.514 29.9653C135.593 29.8569 135.641 29.7265 135.648 29.5856H135.652V16.3827C135.652 12.8813 138.492 10.0426 141.994 10.0426C145.497 10.0426 148.336 12.8813 148.336 16.3827L148.339 27.4185L148.34 27.4147C148.34 27.4245 148.341 27.4345 148.341 27.4451V29.5856H148.345C148.366 29.9616 148.678 30.2636 149.059 30.2636H152.211C152.26 30.2636 152.307 30.2578 152.352 30.2489C152.371 30.2455 152.388 30.238 152.406 30.2329C152.432 30.2255 152.459 30.2189 152.484 30.2091C152.509 30.1984 152.533 30.1835 152.557 30.1698C152.572 30.1615 152.588 30.1553 152.602 30.1456C152.631 30.1267 152.658 30.1036 152.684 30.0807C152.69 30.0745 152.698 30.07 152.704 30.0636C152.734 30.0349 152.761 30.0038 152.785 29.9713C152.787 29.9687 152.789 29.9667 152.791 29.9644C152.868 29.8569 152.916 29.7275 152.924 29.5876C152.924 29.5867 152.924 29.5856 152.924 29.5856H152.929V28.1278L152.928 28.1275Z" fill="#5E5F6E"/>
<path fill-rule="evenodd" clip-rule="evenodd" d="M120.099 27.3588C120.209 28.6122 121.213 30.2075 122.951 30.2075H123.969C124.363 30.2075 124.686 29.8846 124.686 29.4904V7.13983H124.682C124.661 6.7633 124.35 6.46172 123.969 6.46172H120.817C120.435 6.46172 120.124 6.7633 120.103 7.13983H120.099V8.95596C118.168 6.5777 115.123 5.59058 112.069 5.59058C105.129 5.59058 99.5022 11.2157 99.5022 18.1552C99.5022 25.0949 105.129 30.7202 112.069 30.7202V30.7209C115.123 30.7209 118.451 29.5366 120.099 27.3559L120.099 27.3588ZM112.081 26.3228C107.667 26.3228 104.089 22.6664 104.089 18.1552C104.089 13.6448 107.667 9.98812 112.081 9.98812C116.496 9.98812 120.074 13.6448 120.074 18.1552C120.074 22.6664 116.496 26.3228 112.081 26.3228Z" fill="#5E5F6E"/>
<path fill-rule="evenodd" clip-rule="evenodd" d="M80.8608 24.1575C82.9651 25.615 85.2621 26.3228 87.4694 26.3228C89.5722 26.3228 91.7462 25.233 91.7462 23.3359C91.7462 20.8032 87.0091 20.4092 84.0327 19.3977C81.0559 18.3864 78.4921 16.2958 78.4921 12.9102C78.4921 7.72971 83.109 5.59009 87.4182 5.59009C90.1486 5.59009 92.9658 6.49023 94.7922 7.77969C95.4211 8.25618 95.038 8.80323 95.038 8.80323L93.2947 11.2927C93.0986 11.5731 92.7561 11.8153 92.2642 11.5119C91.7724 11.2086 90.0472 9.98778 87.4182 9.98778C84.7891 9.98778 83.2053 11.2017 83.2053 12.7063C83.2053 14.5106 85.2637 15.0781 87.6747 15.6931C91.8762 16.8253 96.4595 18.1863 96.4595 23.3359C96.4595 27.9004 92.189 30.7212 87.4694 30.7212C83.8927 30.7212 80.8477 29.7017 78.2937 27.8281C77.7617 27.2957 78.1333 26.8015 78.1333 26.8015L79.8682 24.3246C80.2211 23.8615 80.6662 24.023 80.8608 24.1575Z" fill="#5E5F6E"/>
<path fill-rule="evenodd" clip-rule="evenodd" d="M68.7428 27.3588C68.853 28.6122 69.8566 30.2075 71.5952 30.2075H72.6126C73.0068 30.2075 73.3301 29.8846 73.3301 29.4904V7.13983H73.3257C73.3051 6.7633 72.9937 6.46172 72.6126 6.46172H69.4604C69.0793 6.46172 68.7679 6.7633 68.7466 7.13983H68.7428V8.95596C66.8116 6.5777 63.7665 5.59058 60.7131 5.59058C53.7725 5.59058 48.146 11.2157 48.146 18.1552C48.146 25.0949 53.7725 30.7202 60.7131 30.7202V30.7209C63.7665 30.7209 67.0942 29.5366 68.7424 27.3559L68.7428 27.3588ZM60.7255 26.3228C56.3112 26.3228 52.7326 22.6664 52.7326 18.1552C52.7326 13.6448 56.3112 9.98812 60.7255 9.98812C65.1395 9.98812 68.7176 13.6448 68.7176 18.1552C68.7176 22.6664 65.1395 26.3228 60.7255 26.3228Z" fill="#5E5F6E"/>
<path fill-rule="evenodd" clip-rule="evenodd" d="M30.527 19.0098C25.8562 19.0098 22.0698 22.7925 22.0698 27.4589C22.0698 32.1251 25.8562 35.9078 30.527 35.9078C35.1979 35.9078 38.9842 32.1251 38.9842 27.4589C38.9842 22.7925 35.1979 19.0098 30.527 19.0098ZM8.5544 19.0105C3.88364 19.0105 0.097168 22.7925 0.097168 27.4589C0.097168 32.1251 3.88364 35.9078 8.5544 35.9078C13.2254 35.9078 17.012 32.1251 17.012 27.4589C17.012 22.7925 13.2254 19.0105 8.5544 19.0105ZM27.9978 8.4486C27.9978 13.1151 24.2114 16.8981 19.5408 16.8981C14.8698 16.8981 11.0835 13.1151 11.0835 8.4486C11.0835 3.78305 14.8698 0 19.5408 0C24.2114 0 27.9978 3.78305 27.9978 8.4486Z" fill="#5E5F6E"/>
</g>
<defs>
<clipPath id="clip0_1221_31047">
<rect width="182" height="36" fill="white" transform="translate(0.097168)"/>
</clipPath>
</defs>
</svg>
