<svg width="19" height="18" viewBox="0 0 19 18" fill="none" xmlns="http://www.w3.org/2000/svg">
<path d="M4.81931 13.0246C4.67417 11.6458 5.10958 10.1944 6.19812 9.10587C8.15749 7.14647 11.3506 7.2916 13.1648 9.39614L13.2482 9.48543" stroke="#5E5F6E" stroke-miterlimit="10" stroke-linecap="round" stroke-linejoin="round"/>
<path d="M13.5412 8.10938L13.2509 9.48821L11.8721 9.77848" stroke="#5E5F6E" stroke-miterlimit="10" stroke-linecap="round" stroke-linejoin="round"/>
<path d="M5.48145 16.8019L5.77172 15.4231L7.15054 15.1328" stroke="#5E5F6E" stroke-miterlimit="10" stroke-linecap="round" stroke-linejoin="round"/>
<path d="M14.1806 11.8633C14.3258 13.2421 13.8903 14.6935 12.8018 15.782C10.8424 17.7414 7.64935 17.5963 5.83511 15.4918L5.77222 15.4259" stroke="#5E5F6E" stroke-miterlimit="10" stroke-linecap="round" stroke-linejoin="round"/>
<path d="M15.9301 11.2134C17.0138 10.6328 17.6641 9.47173 17.6641 8.16548C17.6641 6.20609 16.0746 4.60955 14.1239 4.60955C13.4014 4.60955 12.6789 4.82727 12.1009 5.26269C11.5952 2.72275 9.42779 0.835938 6.75457 0.835938C3.79239 0.835938 1.33594 3.3033 1.33594 6.27866C1.33594 7.87522 2.05842 9.32656 3.14215 10.3425" stroke="#5E5F6E" stroke-miterlimit="10" stroke-linecap="round" stroke-linejoin="round"/>
<path d="M8.01562 14.1953L9.11265 10.7671C9.16654 10.5987 9.32314 10.4844 9.5 10.4844C9.67686 10.4844 9.83346 10.5987 9.88735 10.7671L10.9844 14.1953M8.41143 12.9583H10.5886" stroke="#5E5F6E" stroke-linecap="round" stroke-linejoin="round"/>
</svg>
