<svg width="211" height="30" viewBox="0 0 211 30" fill="none" xmlns="http://www.w3.org/2000/svg">
<g clip-path="url(#clip0_1221_35376)">
<path d="M55.4445 2.17163C61.0281 2.17163 63.7369 4.92649 63.7369 9.35039C63.7369 12.6695 62.2357 14.6894 59.1527 15.4433C63.1971 16.1119 65.1956 18.3215 65.1956 22.2001C65.1956 26.5813 62.2357 29.5875 56.1123 29.5875H44.8174V2.17163H55.4445ZM48.5681 5.76101V13.9355H54.9425C58.4849 13.9355 59.9436 12.3091 59.9436 9.66808C59.9436 7.02701 58.3618 5.74679 54.9425 5.74679L48.5681 5.76101ZM48.5681 17.2783V25.8132H56.2354C59.8204 25.8132 61.4448 24.5187 61.4448 21.7639C61.4448 18.843 59.9009 17.2594 56.1549 17.2594L48.5681 17.2783Z" fill="#5E5F6E"/>
<path d="M71.3239 0.711297C71.6584 0.68733 71.9941 0.735654 72.3084 0.852993C72.6226 0.970332 72.908 1.15394 73.1451 1.39138C73.3823 1.62881 73.5656 1.91453 73.6828 2.22914C73.8 2.54376 73.8483 2.87992 73.8244 3.21485C73.8244 3.87884 73.5609 4.51563 73.092 4.98513C72.6231 5.45464 71.987 5.71841 71.3239 5.71841C70.6607 5.71841 70.0247 5.45464 69.5557 4.98513C69.0868 4.51563 68.8233 3.87884 68.8233 3.21485C68.7994 2.87992 68.8477 2.54376 68.9649 2.22914C69.0821 1.91453 69.2655 1.62881 69.5026 1.39138C69.7398 1.15394 70.0251 0.970332 70.3393 0.852993C70.6536 0.735654 70.9893 0.68733 71.3239 0.711297ZM69.4911 8.72457H73.0761V29.5875H69.4911V8.72457Z" fill="#5E5F6E"/>
<path d="M86.7626 26.0787C87.5204 26.0561 88.2739 25.9576 89.0121 25.7848V29.2461C88.2268 29.4708 87.4136 29.5826 86.5969 29.578C82.1357 29.578 79.9667 26.9512 79.9667 23.0678V12.0579H76.5901V8.73876H79.9667V4.2959H83.4475V8.7198H88.9884V12.0389H83.4475V22.992C83.4475 24.827 84.532 26.0787 86.7626 26.0787Z" fill="#5E5F6E"/>
<path d="M103.788 30C100.747 30 98.4125 28.6249 97.1575 25.9128V29.5827H93.5725V0H97.1812V12.4751C98.5167 9.72025 101.017 8.30251 104.223 8.30251C109.764 8.30251 112.558 13.0156 112.558 19.1513C112.539 25.0356 109.622 30 103.788 30ZM103.243 11.6406C100.023 11.6406 97.1812 13.6842 97.1812 18.3167V19.9858C97.1812 24.6183 99.8048 26.6619 102.864 26.6619C106.909 26.6619 108.992 23.9924 108.992 19.1513C108.954 14.1441 106.956 11.6406 103.243 11.6406Z" fill="#5E5F6E"/>
<path d="M116.29 8.71973H119.875V21.3371C119.875 25.0924 121.377 26.7614 124.791 26.7614C128.106 26.7614 130.417 24.5519 130.417 20.3366V8.71973H134.002V29.5827H130.417V26.1593C129.779 27.3437 128.827 28.3289 127.665 29.0065C126.504 29.6842 125.178 30.0279 123.834 30C119.042 30 116.29 26.6808 116.29 20.9435V8.71973Z" fill="#5E5F6E"/>
<path d="M154.129 29.0423C152.879 29.7108 150.961 29.9906 149.043 29.9906C141.627 29.9906 138.151 25.4861 138.151 19.085C138.151 12.7834 141.608 8.27888 149.043 8.27888C150.756 8.22873 152.457 8.57942 154.011 9.30307V12.6222C152.53 11.9305 150.909 11.5944 149.275 11.6407C143.858 11.6407 141.651 15.0593 141.651 19.1087C141.651 23.158 143.9 26.5767 149.361 26.5767C150.972 26.6195 152.577 26.3655 154.096 25.8275L154.129 29.0423Z" fill="#5E5F6E"/>
<path d="M158.216 29.5827V0H161.801V18.4922L170.761 8.72925H175.431L165.633 18.9663L175.843 29.5827H170.965L161.797 19.8198V29.5827H158.216Z" fill="#5E5F6E"/>
<path d="M187.72 30C179.925 30 176.511 25.4955 176.511 19.0944C176.511 12.7928 180.011 8.28833 186.347 8.28833C192.764 8.28833 195.345 12.7549 195.345 19.0944V20.7208H180.134C180.636 24.2675 182.928 26.5624 187.844 26.5624C190.005 26.5619 192.15 26.1816 194.18 25.4386V28.7577C192.47 29.6681 189.847 30 187.72 30ZM180.096 17.6719H191.722C191.514 13.7933 189.762 11.579 186.181 11.579C182.383 11.56 180.47 14.0209 180.096 17.6482V17.6719Z" fill="#5E5F6E"/>
<path d="M207.848 26.0787C208.606 26.0561 209.359 25.9576 210.097 25.7848V29.2461C209.312 29.4708 208.499 29.5826 207.682 29.578C203.221 29.578 201.052 26.9512 201.052 23.0678V12.0579H197.675V8.73876H201.052V4.2959H204.552V8.7198H210.093V12.0389H204.552V22.992C204.556 24.827 205.631 26.0787 207.848 26.0787Z" fill="#5E5F6E"/>
<path d="M1.04434 2.96834C0.90611 2.96656 0.769167 2.99509 0.643125 3.05193C0.517082 3.10877 0.404995 3.19255 0.314733 3.29738C0.224471 3.40222 0.158222 3.52556 0.120638 3.65875C0.0830545 3.79195 0.0750462 3.93177 0.097176 4.06839L4.11788 28.5065C4.16797 28.8056 4.32171 29.0774 4.55209 29.2742C4.78247 29.4711 5.07475 29.5803 5.3776 29.5828H24.6666C24.8936 29.5858 25.1141 29.507 25.288 29.3607C25.4618 29.2145 25.5774 29.0107 25.6137 28.7863L29.6344 4.07313C29.6565 3.93651 29.6485 3.79669 29.611 3.6635C29.5734 3.5303 29.5071 3.40696 29.4169 3.30213C29.3266 3.19729 29.2145 3.11352 29.0885 3.05667C28.9624 2.99983 28.8255 2.9713 28.6873 2.97308L1.04434 2.96834ZM17.9749 20.6307H11.8183L10.1513 11.911H19.4666L17.9749 20.6307Z" fill="#5E5F6E"/>
<path d="M28.3557 11.9109H19.4666L17.9748 20.6307H11.8183L4.54883 29.2698C4.77924 29.4693 5.073 29.5802 5.37759 29.5828H24.6713C24.8983 29.5857 25.1188 29.5069 25.2927 29.3607C25.4665 29.2145 25.5821 29.0106 25.6184 28.7862L28.3557 11.9109Z" fill="url(#paint0_linear_1221_35376)"/>
</g>
<defs>
<linearGradient id="paint0_linear_1221_35376" x1="30.4111" y1="14.3528" x2="15.7071" y2="25.8148" gradientUnits="userSpaceOnUse">
<stop offset="0.18" stop-color="#5E5F6E"/>
<stop offset="1" stop-color="#5E5F6E"/>
</linearGradient>
<clipPath id="clip0_1221_35376">
<rect width="210" height="30" fill="white" transform="translate(0.097168)"/>
</clipPath>
</defs>
</svg>
