<svg width="20" height="20" viewBox="0 0 20 20" fill="none" xmlns="http://www.w3.org/2000/svg">
<path d="M13.0949 17.4002C15.4575 17.4002 17.3728 15.4848 17.3728 13.1222C17.3728 10.7595 15.4575 8.84424 13.0949 8.84424C10.7322 8.84424 8.81689 10.7595 8.81689 13.1222C8.81689 15.4848 10.7322 17.4002 13.0949 17.4002Z" stroke="#5E5F6E" stroke-linecap="round" stroke-linejoin="round"/>
<path d="M16.1182 16.1455L18.0861 18.1133" stroke="#5E5F6E" stroke-linecap="round" stroke-linejoin="round"/>
<path d="M8.81689 13.2992H10.5868L11.6487 11.8833L13.0646 14.3612L14.1265 12.9452H15.1884" stroke="#5E5F6E" stroke-linecap="round" stroke-linejoin="round"/>
<path d="M7.57518 7.99972C9.29892 7.99972 10.6962 6.60237 10.6962 4.87865C10.6962 3.15492 9.29892 1.75757 7.57518 1.75757C5.85146 1.75757 4.4541 3.15492 4.4541 4.87865C4.4541 6.60237 5.85146 7.99972 7.57518 7.99972Z" stroke="#5E5F6E" stroke-linecap="round" stroke-linejoin="round"/>
<path d="M1.95703 16.7387V16.0619C1.96697 15.1103 2.21793 14.1768 2.68645 13.3485C3.15498 12.5202 3.82581 11.8242 4.63625 11.3255C5.44671 10.8268 6.37034 10.5416 7.32089 10.4966" stroke="#5E5F6E" stroke-linecap="round" stroke-linejoin="round"/>
</svg>
