<svg width="21" height="20" viewBox="0 0 21 20" fill="none" xmlns="http://www.w3.org/2000/svg">
<path d="M16.8001 12.6953C18.2779 12.1484 19.2891 10.7422 19.2891 9.10156C19.2891 6.9922 17.5779 5.27344 15.4779 5.27344C14.7001 5.27344 13.9223 5.50782 13.3001 5.97657C12.7556 3.2422 10.4222 1.21094 7.54438 1.21094C4.35543 1.21094 1.71094 3.86719 1.71094 7.07031C1.71094 8.94531 2.5665 10.5859 3.88875 11.6016" stroke="white" stroke-miterlimit="10" stroke-linecap="round" stroke-linejoin="round"/>
<path d="M10.3341 9.8624C10.7453 9.8624 11.1396 10.0257 11.4303 10.3164C11.721 10.6072 11.8843 11.0015 11.8843 11.4126M13.7014 11.1095C13.7014 11.5617 13.6026 12.0084 13.4117 12.4184C13.2209 12.8283 12.9427 13.1916 12.5966 13.4827C12.2506 13.7737 11.845 13.9856 11.4084 14.1034C10.9718 14.2211 10.5147 14.242 10.0692 14.1644C9.7783 14.1143 9.47033 14.1779 9.26157 14.3866L7.88808 15.7601H6.72542V16.9228H5.56276V18.0854H3.625V16.6293C3.625 16.3208 3.74747 16.0247 3.96553 15.8071L7.3238 12.4489C7.53256 12.2401 7.59612 11.9321 7.546 11.6412C7.47272 11.2181 7.48814 10.7843 7.59128 10.3675C7.69442 9.95064 7.88302 9.55976 8.14514 9.21962C8.40726 8.87948 8.73718 8.5975 9.114 8.39156C9.49081 8.18561 9.90629 8.06018 10.3341 8.02322C10.7619 7.98627 11.1928 8.03858 11.5993 8.17686C12.0059 8.31514 12.3793 8.53637 12.6958 8.82652C13.0124 9.11667 13.2652 9.46941 13.4383 9.8624C13.6114 10.2554 13.701 10.68 13.7014 11.1095Z" stroke="white" stroke-linecap="round" stroke-linejoin="round"/>
</svg>
