<svg width="20" height="20" viewBox="0 0 20 20" fill="none" xmlns="http://www.w3.org/2000/svg">
<path d="M5.31907 14.0249C5.17392 12.646 5.60934 11.1946 6.69788 10.1061C8.65725 8.14671 11.8504 8.29185 13.6646 10.3964L13.7479 10.4857" stroke="#5E5F6E" stroke-miterlimit="10" stroke-linecap="round" stroke-linejoin="round"/>
<path d="M14.0412 9.1084L13.7509 10.4872L12.3721 10.7775" stroke="#5E5F6E" stroke-miterlimit="10" stroke-linecap="round" stroke-linejoin="round"/>
<path d="M5.98145 17.8034L6.27172 16.4245L7.65054 16.1343" stroke="#5E5F6E" stroke-miterlimit="10" stroke-linecap="round" stroke-linejoin="round"/>
<path d="M14.6808 12.8638C14.826 14.2426 14.3906 15.694 13.3021 16.7825C11.3426 18.7419 8.14959 18.5968 6.33535 16.4923L6.27246 16.4263" stroke="#5E5F6E" stroke-miterlimit="10" stroke-linecap="round" stroke-linejoin="round"/>
<path d="M16.4301 12.2134C17.5138 11.6328 18.1641 10.4717 18.1641 9.16548C18.1641 7.20609 16.5746 5.60955 14.6239 5.60955C13.9014 5.60955 13.1789 5.82727 12.6009 6.26269C12.0952 3.72275 9.92779 1.83594 7.25457 1.83594C4.29239 1.83594 1.83594 4.3033 1.83594 7.27866C1.83594 8.87522 2.55842 10.3266 3.64215 11.3425" stroke="#5E5F6E" stroke-miterlimit="10" stroke-linecap="round" stroke-linejoin="round"/>
<path d="M8.51562 15.1953L9.61265 11.7671C9.66654 11.5987 9.82314 11.4844 10 11.4844C10.1769 11.4844 10.3335 11.5987 10.3873 11.7671L11.4844 15.1953M8.91143 13.9583H11.0886" stroke="#5E5F6E" stroke-linecap="round" stroke-linejoin="round"/>
</svg>
