<svg width="25" height="25" viewBox="0 0 25 25" fill="none" xmlns="http://www.w3.org/2000/svg">
<path d="M20.6476 16.1411C22.4948 15.4575 23.7588 13.6997 23.7588 11.6489C23.7588 9.01222 21.6198 6.86377 18.9948 6.86377C18.0226 6.86377 17.0503 7.15675 16.2726 7.74269C15.592 4.32472 12.6752 1.78564 9.07794 1.78564C5.09175 1.78564 1.78613 5.10596 1.78613 9.10986C1.78613 11.4536 2.85559 13.5044 4.5084 14.7739" stroke="#565ADD" stroke-miterlimit="10" stroke-linecap="round" stroke-linejoin="round"/>
<g clip-path="url(#clip0_1976_136152)">
<path d="M17.7965 12.9576C17.5526 12.7129 17.2628 12.5187 16.9438 12.3862C16.6247 12.2537 16.2826 12.1855 15.9371 12.1855C15.5916 12.1855 15.2495 12.2537 14.9305 12.3862C14.6114 12.5187 14.3216 12.7129 14.0777 12.9576L14.699 13.5789C14.8619 13.416 15.0552 13.2868 15.268 13.1986C15.4809 13.1105 15.7089 13.0651 15.9393 13.0651C16.1696 13.0651 16.3977 13.1105 16.6105 13.1986C16.8234 13.2868 17.0167 13.416 17.1796 13.5789C17.3425 13.7417 17.4717 13.9351 17.5598 14.1479C17.648 14.3607 17.6934 14.5888 17.6934 14.8192C17.6934 15.0495 17.648 15.2776 17.5598 15.4904C17.4717 15.7032 17.3425 15.8966 17.1796 16.0595L13.6796 19.5595C13.3512 19.8884 12.9056 20.0735 12.4408 20.0739C11.976 20.0743 11.5301 19.89 11.2012 19.5617C10.8722 19.2333 10.6872 18.7877 10.6868 18.3229C10.6864 17.8581 10.8706 17.4122 11.199 17.0832L11.8159 16.462L11.199 15.8407L10.5777 16.462C10.333 16.7059 10.1388 16.9956 10.0064 17.3147C9.87386 17.6338 9.80566 17.9759 9.80566 18.3214C9.80566 18.6669 9.87386 19.0089 10.0064 19.328C10.1388 19.6471 10.333 19.9369 10.5777 20.1807C11.0728 20.6694 11.7415 20.9416 12.4371 20.9376C12.7839 20.939 13.1276 20.8717 13.4482 20.7396C13.7689 20.6074 14.0602 20.413 14.3052 20.1676L17.8052 16.6676C18.2957 16.1743 18.5702 15.5064 18.5686 14.8108C18.5669 14.1152 18.2892 13.4486 17.7965 12.9576Z" fill="#565ADD"/>
<path d="M6.83345 20.8589C6.67008 20.6963 6.54045 20.503 6.45199 20.2902C6.36354 20.0773 6.318 19.8491 6.318 19.6186C6.318 19.3881 6.36354 19.1599 6.45199 18.947C6.54045 18.7342 6.67008 18.5409 6.83345 18.3783L10.3334 14.8783C10.4961 14.7149 10.6893 14.5853 10.9022 14.4968C11.115 14.4084 11.3433 14.3628 11.5738 14.3628C11.8043 14.3628 12.0325 14.4084 12.2453 14.4968C12.4582 14.5853 12.6515 14.7149 12.8141 14.8783C12.9764 15.0422 13.1042 15.237 13.1899 15.4512C13.2755 15.6653 13.3173 15.8945 13.3128 16.1252C13.3142 16.3565 13.2696 16.5858 13.1817 16.7999C13.0939 17.0139 12.9645 17.2084 12.8009 17.372L11.8734 18.3127L12.4947 18.9339L13.4222 18.0064C13.9159 17.5127 14.1933 16.8431 14.1933 16.1449C14.1933 15.4466 13.9159 14.777 13.4222 14.2833C12.9285 13.7896 12.2589 13.5122 11.5606 13.5122C10.8624 13.5122 10.1928 13.7896 9.69907 14.2833L6.19907 17.7833C5.95369 18.0272 5.75897 18.3173 5.62609 18.6368C5.49321 18.9563 5.4248 19.2988 5.4248 19.6449C5.4248 19.9909 5.49321 20.3335 5.62609 20.6529C5.75897 20.9724 5.95369 21.2625 6.19907 21.5064C6.69731 21.9914 7.36759 22.2589 8.06282 22.2502C8.76418 22.2508 9.43732 21.974 9.93532 21.4802L9.31407 20.8589C9.15146 21.0223 8.95819 21.1519 8.74534 21.2404C8.53249 21.3288 8.30426 21.3744 8.07376 21.3744C7.84326 21.3744 7.61503 21.3288 7.40218 21.2404C7.18933 21.1519 6.99605 21.0223 6.83345 20.8589Z" fill="#565ADD"/>
</g>
<defs>
<clipPath id="clip0_1976_136152">
<rect width="14" height="14" fill="white" transform="translate(5 10)"/>
</clipPath>
</defs>
</svg>
