<svg width="17" height="16" viewBox="0 0 17 16" fill="none" xmlns="http://www.w3.org/2000/svg">
<path d="M5.93849 7.22785V9.17538C5.93849 9.79096 6.13009 10.3921 6.48803 10.8995C6.84596 11.407 7.35343 11.7969 7.94355 12.0179L8.21703 12.1202C8.39916 12.1884 8.6008 12.1884 8.78293 12.1202L9.05642 12.0179C9.64655 11.7969 10.154 11.407 10.512 10.8996C10.8699 10.3921 11.0615 9.79097 11.0615 9.17538V7.22785C11.062 7.15457 11.0407 7.0827 11.0003 7.0209C10.9598 6.95909 10.9019 6.90998 10.8334 6.87948C10.0978 6.56686 9.30262 6.40901 8.49998 6.41625C7.69734 6.40901 6.90218 6.56686 6.16652 6.87948C6.09808 6.90998 6.04015 6.95909 5.99969 7.0209C5.95924 7.0827 5.93798 7.15457 5.93849 7.22785Z" stroke="#5E5F6E" stroke-linecap="round" stroke-linejoin="round"/>
<path d="M11.0589 1.60937L14.1541 1.60937C14.2093 1.60937 14.2541 1.65415 14.2541 1.70938V14.9332C14.2541 14.9884 14.2093 15.0332 14.1541 15.0332H2.84609C2.79087 15.0332 2.74609 14.9884 2.74609 14.9332L2.74609 1.70938C2.74609 1.65415 2.79087 1.60938 2.84609 1.60938L5.94128 1.60937" stroke="#5E5F6E" stroke-miterlimit="10"/>
<path d="M10.9591 0.966797C11.0143 0.966797 11.0591 1.01157 11.0591 1.0668V2.24621C11.0573 2.58499 10.9219 2.90939 10.6824 3.14895C10.4428 3.3885 10.1184 3.52386 9.77964 3.52562L7.22082 3.52562C6.88204 3.52386 6.55764 3.3885 6.31808 3.14895C6.07853 2.90939 5.94317 2.58499 5.94141 2.24621V1.0668C5.94141 1.01157 5.98618 0.966797 6.04141 0.966797L10.9591 0.966797Z" stroke="#5E5F6E" stroke-miterlimit="10"/>
</svg>
