<svg width="18" height="18" viewBox="0 0 18 18" fill="none" xmlns="http://www.w3.org/2000/svg">
<path d="M12.0949 16.3997C14.4575 16.3997 16.3728 14.4843 16.3728 12.1217C16.3728 9.75904 14.4575 7.84375 12.0949 7.84375C9.73218 7.84375 7.81689 9.75904 7.81689 12.1217C7.81689 14.4843 9.73218 16.3997 12.0949 16.3997Z" stroke="#5E5F6E" stroke-linecap="round" stroke-linejoin="round"/>
<path d="M15.1182 15.1445L17.0861 17.1124" stroke="#5E5F6E" stroke-linecap="round" stroke-linejoin="round"/>
<path d="M7.81689 12.2988H9.58679L10.6487 10.8828L12.0646 13.3607L13.1265 11.9447H14.1884" stroke="#5E5F6E" stroke-linecap="round" stroke-linejoin="round"/>
<path d="M6.57493 6.99997C8.29868 6.99997 9.696 5.60261 9.696 3.87889C9.696 2.15517 8.29868 0.757812 6.57493 0.757812C4.85121 0.757812 3.45386 2.15517 3.45386 3.87889C3.45386 5.60261 4.85121 6.99997 6.57493 6.99997Z" stroke="#5E5F6E" stroke-linecap="round" stroke-linejoin="round"/>
<path d="M0.957031 15.7382V15.0614C0.966969 14.1098 1.21793 13.1763 1.68645 12.348C2.15498 11.5197 2.82581 10.8237 3.63625 10.325C4.44671 9.82629 5.37034 9.54107 6.32089 9.49609" stroke="#5E5F6E" stroke-linecap="round" stroke-linejoin="round"/>
</svg>
