<svg width="18" height="17" viewBox="0 0 18 17" fill="none" xmlns="http://www.w3.org/2000/svg">
<path d="M9.91992 10.2285V14.3239C9.91992 14.5902 9.86745 14.854 9.7655 15.1C9.66356 15.3461 9.51414 15.5696 9.32577 15.7579C9.13741 15.9462 8.91379 16.0956 8.6677 16.1974C8.42161 16.2993 8.15786 16.3517 7.89152 16.3516H3.04207C2.77573 16.3517 2.51198 16.2993 2.26589 16.1974C2.0198 16.0956 1.79618 15.9462 1.60782 15.7579C1.41946 15.5696 1.27003 15.3461 1.16809 15.1C1.06614 14.854 1.01367 14.5902 1.01367 14.3239V2.79402C1.01367 2.25606 1.22738 1.74013 1.60778 1.35973C1.98817 0.979331 2.50411 0.765625 3.04207 0.765625H4.35352" stroke="#5E5F6E" stroke-linecap="round" stroke-linejoin="round"/>
<path d="M1.01367 13.0117H9.91992" stroke="#5E5F6E" stroke-linecap="round" stroke-linejoin="round"/>
<path d="M10.916 0.520193C8.70635 0.482917 6.42103 2.02712 4.98427 3.60859C4.83346 3.77602 4.75 3.99337 4.75 4.21871C4.75 4.44404 4.83346 4.66139 4.98427 4.82882C6.38978 6.37686 8.66853 7.95669 10.916 7.91887C13.1635 7.95669 15.4428 6.37686 16.8494 4.82882C17.0003 4.66139 17.0837 4.44404 17.0837 4.21871C17.0837 3.99337 17.0003 3.77602 16.8494 3.60859C15.411 2.02712 13.1257 0.482917 10.916 0.520193Z" stroke="#5E5F6E" stroke-linecap="round" stroke-linejoin="round"/>
<path d="M12.9714 4.22025C12.9713 4.6268 12.8507 5.02418 12.6247 5.36216C12.3988 5.70014 12.0777 5.96353 11.7021 6.11903C11.3264 6.27453 10.9131 6.31516 10.5144 6.23578C10.1157 6.15641 9.74946 5.96058 9.46203 5.67307C9.1746 5.38556 8.97887 5.01928 8.8996 4.62054C8.82032 4.2218 8.86106 3.80851 9.01667 3.43292C9.17227 3.05733 9.43575 2.73632 9.77378 2.51046C10.1118 2.28461 10.5092 2.16406 10.9158 2.16406C11.1858 2.16399 11.4532 2.21713 11.7027 2.32044C11.9521 2.42376 12.1788 2.57522 12.3697 2.76618C12.5606 2.95714 12.712 3.18384 12.8153 3.43334C12.9185 3.68284 12.9716 3.95024 12.9714 4.22025Z" stroke="#5E5F6E" stroke-linecap="round" stroke-linejoin="round"/>
</svg>
