<svg width="17" height="16" viewBox="0 0 17 16" fill="none" xmlns="http://www.w3.org/2000/svg">
<path d="M14.0038 9.0393C14.7542 9.06507 15.3564 9.56723 15.4279 10.3146C15.4689 10.743 15.4997 11.2983 15.4997 12C15.4997 12.7017 15.4689 13.257 15.4279 13.6854C15.3564 14.4328 14.7542 14.9349 14.0038 14.9607C13.3806 14.9821 12.47 15 11.1663 15C9.86271 15 8.95204 14.9821 8.32884 14.9607C7.57847 14.9349 6.97631 14.4328 6.90481 13.6854C6.86381 13.257 6.83301 12.7017 6.83301 12C6.83301 11.2983 6.86381 10.743 6.90481 10.3146C6.97631 9.56723 7.57847 9.06507 8.32884 9.0393C8.95204 9.01787 9.86271 9 11.1663 9C12.47 9 13.3806 9.01787 14.0038 9.0393Z" stroke="currentColor" stroke-width="0.875"/>
<path d="M4.80157 13.8115C4.77957 14.416 4.42953 14.9234 3.82672 14.9745C3.64192 14.9901 3.42357 15 3.16667 15C2.90976 15 2.69141 14.9901 2.50662 14.9745C1.9038 14.9234 1.55375 14.416 1.53178 13.8115C1.5149 13.3468 1.5 12.7301 1.5 12C1.5 11.2699 1.5149 10.6532 1.53178 10.1885C1.55375 9.58397 1.9038 9.0766 2.50661 9.02553C2.69141 9.00987 2.90976 9 3.16667 9C3.42357 9 3.64192 9.00987 3.82672 9.02553C4.42953 9.0766 4.77957 9.58397 4.80157 10.1885C4.81843 10.6532 4.83333 11.2699 4.83333 12C4.83333 12.7301 4.81843 13.3468 4.80157 13.8115Z" stroke="currentColor" stroke-width="0.875"/>
<path d="M8.67083 1.03929C9.4212 1.06507 10.0234 1.56722 10.0949 2.31461C10.1359 2.74302 10.1667 3.29832 10.1667 4C10.1667 4.70167 10.1359 5.25697 10.0949 5.6854C10.0234 6.43277 9.4212 6.93493 8.67083 6.9607C8.04763 6.98213 7.13697 7 5.83333 7C4.5297 7 3.61903 6.98213 2.99584 6.9607C2.24548 6.93493 1.64332 6.43277 1.57179 5.6854C1.53079 5.25697 1.5 4.70167 1.5 4C1.5 3.29832 1.53079 2.74302 1.57179 2.31461C1.64332 1.56722 2.24548 1.06507 2.99584 1.03929C3.61903 1.01788 4.5297 1 5.83333 1C7.13697 1 8.04763 1.01788 8.67083 1.03929Z" stroke="currentColor" stroke-width="0.875"/>
<path d="M15.4686 5.81147C15.4466 6.41603 15.0965 6.9234 14.4937 6.9745C14.3089 6.99013 14.0906 7 13.8337 7C13.5768 7 13.3584 6.99013 13.1736 6.9745C12.5708 6.9234 12.2208 6.41603 12.1988 5.81147C12.1819 5.34683 12.167 4.73007 12.167 4C12.167 3.26992 12.1819 2.65315 12.1988 2.18854C12.2208 1.58396 12.5708 1.0766 13.1736 1.02552C13.3584 1.00986 13.5768 1 13.8337 1C14.0906 1 14.3089 1.00986 14.4937 1.02552C15.0965 1.0766 15.4466 1.58396 15.4686 2.18854C15.4854 2.65315 15.5003 3.26992 15.5003 4C15.5003 4.73007 15.4854 5.34683 15.4686 5.81147Z" stroke="currentColor" stroke-width="0.875"/>
</svg>
