<svg width="19" height="18" viewBox="0 0 19 18" fill="none" xmlns="http://www.w3.org/2000/svg">
<path d="M17.5001 16.9996L15.3037 14.8027" stroke="currentColor" stroke-width="1.14253" stroke-linecap="round" stroke-linejoin="round"/>
<path d="M5.64376 7.50364C5.35514 7.52508 5.06319 7.53865 4.7684 7.53865C4.18289 7.53865 3.60861 7.48509 3.0493 7.42273C2.29629 7.33877 1.69035 6.73266 1.60975 5.97907C1.55025 5.42276 1.5 4.85161 1.5 4.26933C1.5 3.68705 1.55025 3.1159 1.60975 2.55959C1.69035 1.80599 2.29629 1.19988 3.0493 1.11592C3.60861 1.05356 4.18289 1 4.7684 1C5.3539 1 5.92819 1.05356 6.4875 1.11592C7.24051 1.19988 7.84645 1.80599 7.92706 2.55959C7.98655 3.1159 8.03676 3.6867 8.03676 4.26897C8.03676 4.54586 8.02541 4.82022 8.00709 5.09167" stroke="currentColor" stroke-width="1.14253" stroke-linecap="round" stroke-linejoin="round"/>
<path d="M4.7684 10.3955C4.18289 10.3955 3.60861 10.4491 3.0493 10.5114C2.29629 10.5954 1.69035 11.2015 1.60975 11.9551C1.55025 12.5114 1.5 13.0826 1.5 13.6649C1.5 14.2471 1.55025 14.8183 1.60975 15.3746C1.69035 16.1282 2.29629 16.7342 3.0493 16.8183C3.60861 16.8806 4.18289 16.9342 4.7684 16.9342C5.3539 16.9342 5.92819 16.8806 6.4875 16.8183" stroke="currentColor" stroke-width="1.14253" stroke-linecap="round" stroke-linejoin="round"/>
<path d="M10.6201 4.26898C10.6201 3.6867 10.6703 3.1159 10.7298 2.55959C10.8104 1.80599 11.4163 1.19988 12.1693 1.11592C12.7286 1.05356 13.3028 1 13.8884 1C14.4739 1 15.0482 1.05356 15.6075 1.11592C16.3605 1.19988 16.9665 1.80599 17.047 2.55959C17.1066 3.1159 17.1568 3.68705 17.1568 4.26933C17.1568 4.85161 17.1066 5.42276 17.047 5.97907C17.0284 6.15351 16.9815 6.32005 16.9112 6.47403" stroke="currentColor" stroke-width="1.14253" stroke-linecap="round" stroke-linejoin="round"/>
<path d="M11.7229 16.0031C14.7855 16.0031 16.5082 14.2799 16.5082 11.2164C16.5082 8.15289 14.7855 6.42969 11.7229 6.42969C8.66023 6.42969 6.9375 8.15289 6.9375 11.2164C6.9375 14.2799 8.66023 16.0031 11.7229 16.0031Z" stroke="currentColor" stroke-width="1.14253" stroke-linecap="round" stroke-linejoin="round"/>
</svg>
