<svg width="26" height="28" viewBox="0 0 26 28" fill="none" xmlns="http://www.w3.org/2000/svg">
<path d="M17.9417 4.32484L14.5601 1.44604C14.1262 1.0774 13.5754 0.875 13.0061 0.875C12.4367 0.875 11.8859 1.0774 11.4521 1.44604L8.06445 4.32604" stroke="#5E5F6E" stroke-width="1.5" stroke-linecap="round" stroke-linejoin="round"/>
<path d="M5.8 6.24512L1.846 9.60512C1.58085 9.8304 1.36786 10.1106 1.22178 10.4264C1.0757 10.7422 1.00002 11.086 1 11.4339V24.7251C1 25.3616 1.25286 25.9721 1.70294 26.4222C2.15303 26.8723 2.76348 27.1251 3.4 27.1251H22.6C23.2365 27.1251 23.847 26.8723 24.2971 26.4222C24.7471 25.9721 25 25.3616 25 24.7251V11.4339C25.0005 11.0867 24.9257 10.7434 24.7807 10.4279C24.6357 10.1123 24.4239 9.83204 24.16 9.60632L20.2 6.24512" stroke="#5E5F6E" stroke-width="1.5" stroke-linecap="round" stroke-linejoin="round"/>
<path d="M1.14844 10.6079L23.7996 26.5247" stroke="#5E5F6E" stroke-width="1.5" stroke-linecap="round" stroke-linejoin="round"/>
<path d="M12.8477 18.8285L24.8537 10.6145" stroke="#5E5F6E" stroke-width="1.5" stroke-linecap="round" stroke-linejoin="round"/>
<path d="M5.7998 13.7978V4.32495H20.1998V13.7978" stroke="#5E5F6E" stroke-width="1.5" stroke-linecap="round" stroke-linejoin="round"/>
<path d="M10.5996 10.925H15.3996" stroke="#5E5F6E" stroke-width="1.5" stroke-linecap="round" stroke-linejoin="round"/>
<path d="M13 13.3249V8.5249" stroke="#5E5F6E" stroke-width="1.5" stroke-linecap="round" stroke-linejoin="round"/>
</svg>
