<svg width="17" height="16" viewBox="0 0 17 16" fill="none" xmlns="http://www.w3.org/2000/svg">
<g clip-path="url(#clip0_3301_26212)">
<path d="M14.8067 6.35607C14.9692 6.19982 15.1192 6.04357 15.263 5.88107C15.4356 5.69124 15.5312 5.44389 15.5312 5.18732C15.5312 4.93076 15.4356 4.6834 15.263 4.49357C13.6255 2.68732 11.0005 0.924821 8.50046 0.968571C6.00046 1.01232 3.37546 2.68732 1.73796 4.49357C1.56537 4.6834 1.46973 4.93076 1.46973 5.18732C1.46973 5.44389 1.56537 5.69124 1.73796 5.88107C2.84076 7.10846 4.18281 8.09745 5.68171 8.78732" stroke="currentColor" stroke-linecap="round" stroke-linejoin="round"/>
<path d="M6.78753 6.78755C6.51811 6.49852 6.32613 6.14606 6.22945 5.76294C6.13276 5.37982 6.13451 4.97847 6.23453 4.5962C6.33454 4.21394 6.52958 3.86316 6.80151 3.57649C7.07344 3.28981 7.41344 3.07653 7.78989 2.95649C8.16635 2.83644 8.56704 2.81352 8.95473 2.88985C9.34242 2.96619 9.70452 3.1393 10.0074 3.3931C10.3102 3.6469 10.544 3.97314 10.6869 4.34151C10.8299 4.70988 10.8774 5.1084 10.825 5.50005" stroke="currentColor" stroke-linecap="round" stroke-linejoin="round"/>
<path d="M7.5625 10.3438C7.5625 11.214 7.9082 12.0486 8.52356 12.6639C9.13891 13.2793 9.97351 13.625 10.8438 13.625C11.714 13.625 12.5486 13.2793 13.1639 12.6639C13.7793 12.0486 14.125 11.214 14.125 10.3438C14.125 9.47351 13.7793 8.63891 13.1639 8.02356C12.5486 7.4082 11.714 7.0625 10.8438 7.0625C9.97351 7.0625 9.13891 7.4082 8.52356 8.02356C7.9082 8.63891 7.5625 9.47351 7.5625 10.3438Z" stroke="currentColor" stroke-linecap="round" stroke-linejoin="round"/>
<path d="M15.5316 15.0316L13.1816 12.6816" stroke="currentColor" stroke-linecap="round" stroke-linejoin="round"/>
</g>
<defs>
<clipPath id="clip0_3301_26212">
<rect width="16" height="16" fill="white" transform="translate(0.5)"/>
</clipPath>
</defs>
</svg>
