<svg width="17" height="18" viewBox="0 0 17 18" fill="none" xmlns="http://www.w3.org/2000/svg">
<g clip-path="url(#clip0_3301_26249)">
<path d="M10.5299 12.2968C12.5697 10.7585 12.1528 7.62339 9.77958 6.65362C7.40631 5.68386 4.85654 7.60675 5.19001 10.1148C5.30513 10.9807 5.7656 11.7658 6.46976 12.2968C5.43058 12.6789 4.52516 13.3474 3.8617 14.2225C3.61826 14.542 3.81748 15.0011 4.22031 15.0489C4.40726 15.0711 4.59201 14.9934 4.705 14.8451C6.60241 12.3547 10.3972 12.3547 12.2946 14.8451C12.5381 15.1646 13.0416 15.1049 13.201 14.7376C13.2749 14.5671 13.2509 14.3708 13.1379 14.2225C12.4745 13.3474 11.5691 12.6789 10.5299 12.2968ZM8.49982 7.44321C10.258 7.44329 11.3569 9.31687 10.4777 10.8157C9.59856 12.3144 7.40085 12.3143 6.52183 10.8155C6.32141 10.4737 6.2159 10.0861 6.2159 9.69145C6.2159 8.44974 7.23841 7.44316 8.49982 7.44321ZM14.8245 0.179688H2.17511C1.49591 0.179688 0.945312 0.721684 0.945312 1.39027V16.6091C0.945312 17.2777 1.49589 17.8197 2.17511 17.8197H14.8245C15.5037 17.8197 16.0543 17.2777 16.0543 16.6091V1.39028C16.0543 0.721684 15.5037 0.179688 14.8245 0.179688ZM15.0002 16.6091C15.0002 16.7046 14.9215 16.782 14.8245 16.782H2.17511C2.07808 16.782 1.99943 16.7046 1.99943 16.6091V1.39028C1.99943 1.29476 2.07808 1.21733 2.17511 1.21733H14.8245C14.9215 1.21734 15.0002 1.29477 15.0002 1.39028V16.6091ZM5.16178 3.46557C5.16178 3.17902 5.39774 2.94673 5.68884 2.94674H11.3108C11.7165 2.94677 11.9701 3.37913 11.7672 3.725C11.6731 3.88551 11.4991 3.98439 11.3108 3.98439H5.68884C5.39776 3.98439 5.16178 3.7521 5.16178 3.46557Z" fill="#5E5F6E"/>
</g>
<defs>
<clipPath id="clip0_3301_26249">
<rect width="16" height="18" fill="white" transform="translate(0.5)"/>
</clipPath>
</defs>
</svg>
