<svg width="16" height="16" viewBox="0 0 16 16" fill="none" xmlns="http://www.w3.org/2000/svg">
<path d="M1 8C1 9.85652 1.7375 11.637 3.05025 12.9497C4.36301 14.2625 6.14348 15 8 15C9.85652 15 11.637 14.2625 12.9497 12.9497C14.2625 11.637 15 9.85652 15 8C15 6.14348 14.2625 4.36301 12.9497 3.05025C11.637 1.7375 9.85652 1 8 1C6.14348 1 4.36301 1.7375 3.05025 3.05025C1.7375 4.36301 1 6.14348 1 8Z" stroke="#5E5F6E"/>
<path d="M7.99961 11.8453C7.68791 11.8453 7.43523 11.5926 7.43523 11.2809V7.5425C7.43523 7.2308 7.68791 6.97813 7.99961 6.97813C8.31131 6.97813 8.56398 7.2308 8.56398 7.5425V11.2809C8.56398 11.5926 8.31131 11.8453 7.99961 11.8453ZM7.99961 5.8625C7.75898 5.8625 7.55555 5.77937 7.3893 5.61312C7.22742 5.44687 7.14648 5.24563 7.14648 5.00937C7.14648 4.77312 7.22742 4.57188 7.3893 4.40563C7.55555 4.23938 7.75898 4.15625 7.99961 4.15625C8.23586 4.15625 8.43711 4.23938 8.60336 4.40563C8.76961 4.57188 8.85273 4.77312 8.85273 5.00937C8.85273 5.24563 8.76961 5.44687 8.60336 5.61312C8.43711 5.77937 8.23586 5.8625 7.99961 5.8625Z" fill="#5E5F6E"/>
</svg>
