<svg width="17" height="16" viewBox="0 0 17 16" fill="none" xmlns="http://www.w3.org/2000/svg">
<g clip-path="url(#clip0_3301_26203)">
<path d="M13.5401 10.1562C14.7223 9.71875 15.5312 8.59375 15.5312 7.28125C15.5312 5.59376 14.1623 4.21875 12.4823 4.21875C11.8601 4.21875 11.2378 4.40626 10.7401 4.78126C10.3045 2.59376 8.43775 0.96875 6.13551 0.96875C3.58434 0.96875 1.46875 3.09375 1.46875 5.65625C1.46875 7.15625 2.1532 8.46875 3.211 9.28125" stroke="#5E5F6E" stroke-miterlimit="10" stroke-linecap="round" stroke-linejoin="round"/>
<path d="M8.04153 11.4317C7.97328 11.4317 7.91797 11.3764 7.91797 11.3081C7.91797 11.2399 7.97328 11.1846 8.04153 11.1846" stroke="#5E5F6E" stroke-miterlimit="10" stroke-linecap="round" stroke-linejoin="round"/>
<path d="M8.04102 11.4317C8.1092 11.4317 8.16458 11.3764 8.16458 11.3081C8.16458 11.2399 8.1092 11.1846 8.04102 11.1846" stroke="#5E5F6E" stroke-miterlimit="10" stroke-linecap="round" stroke-linejoin="round"/>
<path d="M8.78236 7.97256L9.02948 8.77562C9.09123 9.08456 9.40011 9.20812 9.70898 9.14631L10.5121 8.961C11.2535 8.77563 11.7477 9.64056 11.2535 10.1966L10.6975 10.8143C10.5121 11.0614 10.5121 11.3703 10.6975 11.5557L11.2535 12.1734C11.7477 12.7294 11.2535 13.5943 10.5121 13.409L9.70898 13.2237C9.40011 13.1619 9.15305 13.3472 9.02948 13.5943L8.78236 14.3974C8.53523 15.1388 7.5468 15.1388 7.36148 14.3974L7.11436 13.5943C7.05255 13.2854 6.74367 13.1619 6.4348 13.2237L5.63167 13.409C4.89036 13.5943 4.39611 12.7294 4.89036 12.1734L5.44636 11.5557C5.63167 11.3086 5.63167 10.9996 5.44636 10.8143L4.89036 10.1966C4.39611 9.64056 4.89036 8.77563 5.63167 8.961L6.4348 9.14631C6.74367 9.20812 6.9908 9.02275 7.11436 8.77562L7.36148 7.97256C7.5468 7.293 8.53523 7.293 8.78236 7.97256Z" stroke="#5E5F6E" stroke-miterlimit="10" stroke-linecap="round" stroke-linejoin="round"/>
</g>
<defs>
<clipPath id="clip0_3301_26203">
<rect width="16" height="16" fill="white" transform="translate(0.5)"/>
</clipPath>
</defs>
</svg>
