<svg width="22" height="22" viewBox="0 0 22 22" fill="none" xmlns="http://www.w3.org/2000/svg">
<path d="M8.84444 11.0898C11.0448 11.0898 12.8285 9.30603 12.8285 7.10567C12.8285 4.90532 11.0448 3.12158 8.84444 3.12158C6.64409 3.12158 4.86035 4.90532 4.86035 7.10567C4.86035 9.30603 6.64409 11.0898 8.84444 11.0898Z" stroke="currentColor" stroke-linecap="round" stroke-linejoin="round"/>
<path d="M16.6928 7.93914C18.0668 7.25204 18.2383 5.72349 17.9434 4.74666C17.6485 3.76982 16.0054 3.13123 14.6314 3.81737" stroke="currentColor" stroke-linecap="round" stroke-linejoin="round"/>
<path d="M15.6893 19.0577C15.6893 15.974 12.6216 13.48 8.84467 13.48C5.06775 13.48 2 15.974 2 19.0577" stroke="currentColor" stroke-linecap="round" stroke-linejoin="round"/>
<path d="M19.9997 18.2602C19.9997 15.0729 18.4061 12.684 16.0156 11.8872" stroke="currentColor" stroke-linecap="round" stroke-linejoin="round"/>
</svg>
