<svg width="116" height="180" viewBox="0 0 116 180" fill="none" xmlns="http://www.w3.org/2000/svg">
<g opacity="0.3">
<path d="M113.033 179.5H1V83.0664C1.00024 28.1143 45.5479 -16.4335 100.5 -16.4336H113.033C167.139 -16.4336 211 27.4279 211 81.5332C211 135.216 167.822 178.814 114.3 179.492L113.033 179.5Z" fill="white" stroke="#C8C8D0"/>
<path d="M96.707 179.5H1V101.832C1 52.2953 41.1576 12.1378 90.6943 12.1377H96.707C142.923 12.1377 180.388 49.6026 180.389 95.8184C180.389 142.034 142.923 179.5 96.707 179.5Z" fill="white" stroke="#D6D6DC"/>
<path d="M78.6327 179.5H1.00085V116.518C1.001 76.3399 33.5712 43.7697 73.7489 43.7695H78.6327C116.114 43.7696 146.498 74.1538 146.498 111.635C146.498 149.116 116.114 179.5 78.6327 179.5Z" fill="white" stroke="#E4E4E8"/>
</g>
</svg>
