<svg width="28" height="28" viewBox="0 0 28 28" fill="none" xmlns="http://www.w3.org/2000/svg">
<path d="M4.14423 18.1966C3.63569 20.0688 3.03133 24.2075 7.40964 24.2075H20.7144C17.576 24.2075 16.257 20.97 17.4396 18.1966C13.6003 17.773 7.98346 17.773 4.14423 18.1966Z" stroke="#5E5F6E" stroke-linecap="round" stroke-linejoin="round"/>
<path d="M12.9335 8.96094H19.6058" stroke="#5E5F6E" stroke-linecap="round" stroke-linejoin="round"/>
<path d="M12.9335 13.2969H19.6058" stroke="#5E5F6E" stroke-linecap="round" stroke-linejoin="round"/>
<path d="M20.8193 24.206C22.5402 24.206 23.9697 22.8713 24.0484 21.1523C24.2878 15.9343 24.2589 10.7399 23.962 5.51628C23.917 4.72403 23.3034 4.08241 22.5123 4.02027C18.7502 3.72476 13.7185 3.71024 9.97202 4.0188C9.20634 4.08186 8.60556 4.69138 8.54364 5.45716C8.22431 9.40685 8.26396 13.3039 8.6626 17.2667" stroke="#5E5F6E" stroke-linecap="round" stroke-linejoin="round"/>
<path d="M16.1875 17.6906C16.1875 14.8477 18.4922 12.543 21.3352 12.543H26.3958V19.3588C26.3958 23.6487 22.9182 27.1263 18.6283 27.1263C17.2803 27.1263 16.1875 26.0335 16.1875 24.6855V17.6906Z" fill="#F4F4F6"/>
<path d="M19.7541 20.4492L19.1276 25.1134C19.0492 25.6668 19.6758 26.062 20.1456 25.6668L21.7119 24.0857L23.2782 25.6668C23.6698 26.062 24.3746 25.7458 24.2963 25.1134L23.6698 20.4492" stroke="#5E5F6E" stroke-miterlimit="10" stroke-linecap="round" stroke-linejoin="round"/>
<path d="M21.7116 21.0482C23.6579 21.0482 25.2357 19.4705 25.2357 17.5241C25.2357 15.5778 23.6579 14 21.7116 14C19.7653 14 18.1875 15.5778 18.1875 17.5241C18.1875 19.4705 19.7653 21.0482 21.7116 21.0482Z" stroke="#5E5F6E" stroke-miterlimit="10" stroke-linecap="round" stroke-linejoin="round"/>
<path d="M21.7113 18.6365C22.325 18.6365 22.8225 18.139 22.8225 17.5253C22.8225 16.9116 22.325 16.4141 21.7113 16.4141C21.0975 16.4141 20.6001 16.9116 20.6001 17.5253C20.6001 18.139 21.0975 18.6365 21.7113 18.6365Z" stroke="#5E5F6E" stroke-miterlimit="10" stroke-linecap="round" stroke-linejoin="round"/>
</svg>
