<svg width="106" height="124" viewBox="0 0 106 124" fill="none" xmlns="http://www.w3.org/2000/svg">
<g opacity="0.3">
<path d="M81.2002 -38.1016H173.5V36.7988C173.5 84.5712 134.772 123.299 87 123.299H81.2002C36.6309 123.299 0.500107 87.1679 0.5 42.5986C0.5 -1.97073 36.6308 -38.1016 81.2002 -38.1016Z" fill="white" stroke="#C8C8D0"/>
<path d="M94.6631 -38.1016H173.5V25.8594C173.5 66.6612 140.423 99.7383 99.6211 99.7383H94.6631C56.5999 99.7383 25.7433 68.8815 25.7432 30.8184C25.7432 -7.24493 56.5998 -38.1016 94.6631 -38.1016Z" fill="white" stroke="#D6D6DC"/>
<path d="M109.569 -38.1016H173.5V13.749C173.5 46.833 146.68 73.6532 113.596 73.6533H109.569C78.7086 73.6532 53.6917 48.6354 53.6917 17.7754C53.6918 -13.0845 78.7087 -38.1014 109.569 -38.1016Z" fill="white" stroke="#E4E4E8"/>
</g>
</svg>
