<svg width="16" height="16" viewBox="0 0 16 16" fill="none" xmlns="http://www.w3.org/2000/svg">
<g clip-path="url(#clip0_4243_15095)">
<path d="M14.6246 3.37992C14.3458 3.10024 14.0147 2.87833 13.65 2.72692C13.2854 2.5755 12.8944 2.49756 12.4996 2.49756C12.1047 2.49756 11.7138 2.5755 11.3491 2.72692C10.9844 2.87833 10.6533 3.10024 10.3746 3.37992L11.0846 4.08992C11.2707 3.90378 11.4917 3.75611 11.7349 3.65537C11.9781 3.55463 12.2388 3.50278 12.5021 3.50278C12.7653 3.50278 13.026 3.55463 13.2692 3.65537C13.5124 3.75611 13.7334 3.90378 13.9196 4.08992C14.1057 4.27607 14.2534 4.49706 14.3541 4.74028C14.4549 4.98349 14.5067 5.24417 14.5067 5.50742C14.5067 5.77068 14.4549 6.03135 14.3541 6.27457C14.2534 6.51778 14.1057 6.73878 13.9196 6.92492L9.91955 10.9249C9.54427 11.3009 9.03502 11.5123 8.50382 11.5128C7.97262 11.5133 7.463 11.3027 7.08705 10.9274C6.71111 10.5521 6.49964 10.0429 6.49917 9.51169C6.4987 8.98049 6.70927 8.47087 7.08455 8.09492L7.78955 7.38492L7.08455 6.67492L6.37455 7.38492C6.09487 7.66363 5.87296 7.99481 5.72155 8.35947C5.57013 8.72412 5.49219 9.11508 5.49219 9.50992C5.49219 9.90477 5.57013 10.2957 5.72155 10.6604C5.87296 11.025 6.09487 11.3562 6.37455 11.6349C6.9403 12.1934 7.70459 12.5045 8.49955 12.4999C8.89591 12.5016 9.28866 12.4246 9.65512 12.2736C10.0216 12.1225 10.3545 11.9004 10.6346 11.6199L14.6346 7.61992C15.195 7.0561 15.5088 6.29286 15.5069 5.49785C15.505 4.70285 15.1877 3.9411 14.6246 3.37992Z" fill="#565ADD"/>
<path d="M2.09523 12.4099C1.90853 12.2241 1.76037 12.0032 1.65928 11.7599C1.55819 11.5167 1.50615 11.2558 1.50615 10.9924C1.50615 10.729 1.55819 10.4682 1.65928 10.2249C1.76037 9.98164 1.90853 9.76075 2.09523 9.57491L6.09523 5.57491C6.28107 5.38821 6.50196 5.24006 6.74521 5.13896C6.98847 5.03787 7.2493 4.98583 7.51273 4.98583C7.77616 4.98583 8.03699 5.03787 8.28024 5.13896C8.5235 5.24006 8.74439 5.38821 8.93023 5.57491C9.11575 5.76221 9.2618 5.98485 9.35971 6.22962C9.45762 6.47439 9.5054 6.73633 9.50023 6.99991C9.50175 7.26431 9.45084 7.52639 9.35042 7.77099C9.25001 8.01559 9.10209 8.23785 8.91523 8.42491L7.85523 9.49991L8.56523 10.2099L9.62523 9.14991C10.1895 8.58566 10.5065 7.82038 10.5065 7.02241C10.5065 6.22444 10.1895 5.45916 9.62523 4.89491C9.06098 4.33066 8.2957 4.01367 7.49773 4.01367C6.69976 4.01367 5.93448 4.33066 5.37023 4.89491L1.37023 8.89491C1.0898 9.17371 0.867251 9.5052 0.715391 9.87032C0.56353 10.2354 0.485352 10.627 0.485352 11.0224C0.485352 11.4179 0.56353 11.8094 0.715391 12.1745C0.867251 12.5396 1.0898 12.8711 1.37023 13.1499C1.93964 13.7042 2.70568 14.0098 3.50023 13.9999C4.30178 14.0007 5.07109 13.6843 5.64023 13.1199L4.93023 12.4099C4.74439 12.5966 4.5235 12.7448 4.28024 12.8459C4.03699 12.947 3.77616 12.999 3.51273 12.999C3.2493 12.999 2.98847 12.947 2.74521 12.8459C2.50196 12.7448 2.28107 12.5966 2.09523 12.4099Z" fill="#565ADD"/>
</g>
<defs>
<clipPath id="clip0_4243_15095">
<rect width="16" height="16" fill="white"/>
</clipPath>
</defs>
</svg>
