<svg width="14" height="14" viewBox="0 0 14 14" fill="none" xmlns="http://www.w3.org/2000/svg">
<rect x="0.5" y="0.5" width="13" height="13" rx="6.5" stroke="#5E5F6E"/>
<path fill-rule="evenodd" clip-rule="evenodd" d="M8.80497 9.94741C10.6182 8.5311 10.2477 5.64464 8.13801 4.75178C6.02835 3.85893 3.7618 5.62932 4.05822 7.9385C4.16056 8.73564 4.56988 9.45849 5.19583 9.94741C4.27208 10.2992 3.46722 10.9147 2.87746 11.7204C2.66106 12.0146 2.83815 12.4373 3.19623 12.4812C3.36242 12.5017 3.52665 12.4301 3.62709 12.2936C5.31374 10.0008 8.68706 10.0008 10.3737 12.2936C10.5901 12.5878 11.0377 12.5328 11.1794 12.1946C11.2451 12.0377 11.2238 11.8569 11.1233 11.7204C10.5336 10.9147 9.72872 10.2992 8.80497 9.94741ZM8.7586 8.58373C9.54009 7.20381 8.56328 5.47882 7.0004 5.47875C5.8791 5.4787 4.97017 6.40546 4.97017 7.54868C4.97017 7.912 5.06396 8.26892 5.24212 8.58357C6.0235 9.96356 7.9771 9.96365 8.7586 8.58373Z" fill="#5E5F6E"/>
</svg>
