<svg width="14" height="14" viewBox="0 0 14 14" fill="none" xmlns="http://www.w3.org/2000/svg">
<g clip-path="url(#clip0_1976_167574)">
<path d="M0.4375 10.0616C0.437943 9.41062 0.599692 8.76993 0.908284 8.19678C1.21688 7.62363 1.66269 7.13589 2.20587 6.77716C2.74905 6.41843 3.37266 6.1999 4.02094 6.1411C4.66923 6.08231 5.32198 6.18508 5.92083 6.44023" stroke="#5E5F6E" stroke-linecap="round" stroke-linejoin="round"/>
<path d="M1.77832 3.23708C1.77832 3.9257 2.05187 4.58612 2.5388 5.07305C3.02573 5.55998 3.68615 5.83353 4.37477 5.83353C5.0634 5.83353 5.72382 5.55998 6.21075 5.07305C6.69768 4.58612 6.97123 3.9257 6.97123 3.23708C6.97123 2.54846 6.69768 1.88804 6.21075 1.40111C5.72382 0.914179 5.0634 0.640625 4.37477 0.640625C3.68615 0.640625 3.02573 0.914179 2.5388 1.40111C2.05187 1.88804 1.77832 2.54846 1.77832 3.23708Z" stroke="#5E5F6E" stroke-linecap="round" stroke-linejoin="round"/>
<path d="M9.64021 9.98159C9.58164 9.98159 9.53418 9.93413 9.53418 9.87556C9.53418 9.817 9.58164 9.76953 9.64021 9.76953" stroke="#5E5F6E" stroke-miterlimit="10" stroke-linecap="round" stroke-linejoin="round"/>
<path d="M9.63965 9.98159C9.69816 9.98159 9.74568 9.93413 9.74568 9.87556C9.74568 9.817 9.69816 9.76953 9.63965 9.76953" stroke="#5E5F6E" stroke-miterlimit="10" stroke-linecap="round" stroke-linejoin="round"/>
<path d="M10.2761 7.01157L10.4882 7.70069C10.5412 7.96579 10.8062 8.07182 11.0712 8.01878L11.7604 7.85976C12.3966 7.70069 12.8207 8.4429 12.3966 8.92001L11.9195 9.4501C11.7604 9.66216 11.7604 9.92721 11.9195 10.0863L12.3966 10.6164C12.8207 11.0935 12.3966 11.8356 11.7604 11.6766L11.0712 11.5176C10.8062 11.4646 10.5942 11.6236 10.4882 11.8356L10.2761 12.5248C10.064 13.1609 9.21586 13.1609 9.05684 12.5248L8.84478 11.8356C8.79174 11.5706 8.52669 11.4646 8.26164 11.5176L7.57247 11.6766C6.93635 11.8356 6.51223 11.0935 6.93635 10.6164L7.41346 10.0863C7.57247 9.87422 7.57247 9.60912 7.41346 9.4501L6.93635 8.92001C6.51223 8.4429 6.93635 7.70069 7.57247 7.85976L8.26164 8.01878C8.52669 8.07182 8.73875 7.91275 8.84478 7.70069L9.05684 7.01157C9.21586 6.42843 10.064 6.42843 10.2761 7.01157Z" stroke="#5E5F6E" stroke-miterlimit="10" stroke-linecap="round" stroke-linejoin="round"/>
</g>
<defs>
<clipPath id="clip0_1976_167574">
<rect width="14" height="14" fill="white"/>
</clipPath>
</defs>
</svg>
