<svg width="44" height="44" viewBox="0 0 44 44" fill="none" xmlns="http://www.w3.org/2000/svg">
<g clip-path="url(#clip0_1976_107605)">
<path d="M27.9451 29.6664C29.8244 27.7868 28.3009 23.2163 24.5422 19.4575C20.7834 15.6987 16.2127 14.1751 14.3333 16.0545C12.4539 17.9339 13.9775 22.5046 17.7363 26.2633C21.4951 30.0222 26.0657 31.5457 27.9451 29.6664Z" stroke="#077D48" stroke-width="1.5" stroke-linecap="round" stroke-linejoin="round"/>
<path d="M13.5665 17.7834L1.62788 38.7219C1.3917 39.2329 1.31795 39.8038 1.41659 40.358C1.51523 40.912 1.78151 41.4226 2.17948 41.8204C2.57746 42.2185 3.08795 42.4848 3.64206 42.5835C4.19616 42.6821 4.76719 42.6082 5.27805 42.3721L26.2166 30.4426" stroke="#077D48" stroke-width="1.5" stroke-linecap="round" stroke-linejoin="round"/>
<path d="M23.5712 1.375C23.9582 4.83985 23.6269 8.34728 22.5977 11.6783" stroke="#077D48" stroke-width="1.5" stroke-linecap="round" stroke-linejoin="round"/>
<path d="M30.376 3.90137L29.4043 8.76153" stroke="#077D48" stroke-width="1.5" stroke-linecap="round" stroke-linejoin="round"/>
<path d="M42.6246 20.4287C39.1598 20.0417 35.6523 20.3732 32.3213 21.4022" stroke="#077D48" stroke-width="1.5" stroke-linecap="round" stroke-linejoin="round"/>
<path d="M40.0984 13.6235L35.2383 14.5952" stroke="#077D48" stroke-width="1.5" stroke-linecap="round" stroke-linejoin="round"/>
<path d="M14.8196 9.44897C14.4399 9.44897 14.1321 9.14118 14.1321 8.76147C14.1321 8.38177 14.4399 8.07397 14.8196 8.07397" stroke="#077D48" stroke-width="1.5"/>
<path d="M14.8196 9.44897C15.1993 9.44897 15.5071 9.14118 15.5071 8.76147C15.5071 8.38177 15.1993 8.07397 14.8196 8.07397" stroke="#077D48" stroke-width="1.5"/>
<path d="M28.4314 15.2839C28.0515 15.2839 27.7439 14.9761 27.7439 14.5964C27.7439 14.2167 28.0515 13.9089 28.4314 13.9089" stroke="#077D48" stroke-width="1.5"/>
<path d="M28.4314 15.2839C28.8111 15.2839 29.1189 14.9761 29.1189 14.5964C29.1189 14.2167 28.8111 13.9089 28.4314 13.9089" stroke="#077D48" stroke-width="1.5"/>
<path d="M36.21 7.50561C35.8301 7.50561 35.5225 7.19782 35.5225 6.81812C35.5225 6.43843 35.8301 6.13062 36.21 6.13062" stroke="#077D48" stroke-width="1.5"/>
<path d="M36.21 7.50561C36.5896 7.50561 36.8975 7.19782 36.8975 6.81812C36.8975 6.43843 36.5896 6.13062 36.21 6.13062" stroke="#077D48" stroke-width="1.5"/>
<path d="M36.21 26.9504C35.8301 26.9504 35.5225 26.6426 35.5225 26.2629C35.5225 25.8833 35.8301 25.5754 36.21 25.5754" stroke="#077D48" stroke-width="1.5"/>
<path d="M36.21 26.9504C36.5896 26.9504 36.8975 26.6426 36.8975 26.2629C36.8975 25.8833 36.5896 25.5754 36.21 25.5754" stroke="#077D48" stroke-width="1.5"/>
</g>
<defs>
<clipPath id="clip0_1976_107605">
<rect width="44" height="44" fill="white"/>
</clipPath>
</defs>
</svg>
