<svg width="20" height="20" viewBox="0 0 20 20" fill="none" xmlns="http://www.w3.org/2000/svg">
<g clip-path="url(#clip0_1976_129727)">
<path d="M11.6699 12.2266V16.322C11.6699 16.5883 11.6175 16.852 11.5155 17.0981C11.4136 17.3441 11.2641 17.5677 11.0758 17.756C10.8874 17.9443 10.6638 18.0936 10.4177 18.1955C10.1716 18.2973 9.90786 18.3497 9.64152 18.3496H4.79207C4.52573 18.3497 4.26198 18.2973 4.01589 18.1955C3.7698 18.0936 3.54618 17.9443 3.35782 17.756C3.16946 17.5677 3.02003 17.3441 2.91809 17.0981C2.81614 16.852 2.76367 16.5883 2.76367 16.322V4.79207C2.76367 4.25411 2.97738 3.73817 3.35778 3.35778C3.73817 2.97738 4.25411 2.76367 4.79207 2.76367H6.10352" stroke="#5E5F6E" stroke-linecap="round" stroke-linejoin="round"/>
<path d="M2.76367 15.0098H11.6699" stroke="#5E5F6E" stroke-linecap="round" stroke-linejoin="round"/>
<path d="M12.666 2.51922C10.4564 2.48194 8.17103 4.02614 6.73427 5.60762C6.58346 5.77504 6.5 5.99239 6.5 6.21773C6.5 6.44307 6.58346 6.66042 6.73427 6.82785C8.13978 8.37588 10.4185 9.95571 12.666 9.91789C14.9135 9.95571 17.1928 8.37588 18.5994 6.82785C18.7503 6.66042 18.8337 6.44307 18.8337 6.21773C18.8337 5.99239 18.7503 5.77504 18.5994 5.60762C17.161 4.02614 14.8757 2.48194 12.666 2.51922Z" stroke="#5E5F6E" stroke-linecap="round" stroke-linejoin="round"/>
<path d="M14.7216 6.21879C14.7215 6.62533 14.6009 7.02272 14.3749 7.36069C14.149 7.69867 13.8279 7.96206 13.4523 8.11757C13.0766 8.27307 12.6633 8.3137 12.2646 8.23432C11.8659 8.15494 11.4997 7.95912 11.2122 7.67161C10.9248 7.3841 10.7291 7.01782 10.6498 6.61908C10.5705 6.22033 10.6113 5.80704 10.7669 5.43145C10.9225 5.05587 11.186 4.73485 11.524 4.509C11.862 4.28315 12.2595 4.1626 12.666 4.1626C12.936 4.16253 13.2034 4.21567 13.4529 4.31898C13.7023 4.42229 13.929 4.57376 14.1199 4.76471C14.3108 4.95567 14.4622 5.18238 14.5655 5.43188C14.6687 5.68137 14.7218 5.94877 14.7216 6.21879Z" stroke="#5E5F6E" stroke-linecap="round" stroke-linejoin="round"/>
</g>
<defs>
<clipPath id="clip0_1976_129727">
<rect width="19" height="19" fill="white" transform="translate(0.5 0.5)"/>
</clipPath>
</defs>
</svg>
