<svg width="36" height="36" viewBox="0 0 36 36" fill="none" xmlns="http://www.w3.org/2000/svg">
<path d="M27.4922 14.8359H8.50781C7.34283 14.8359 6.39844 15.7804 6.39844 16.9453V31.7109C6.39844 32.8759 7.34283 33.8203 8.50781 33.8203H27.4922C28.6571 33.8203 29.6016 32.8759 29.6016 31.7109V16.9453C29.6016 15.7804 28.6571 14.8359 27.4922 14.8359Z" stroke="#070822" stroke-width="1.5" stroke-linecap="round" stroke-linejoin="round"/>
<path d="M10.6172 14.8359V9.5625C10.6172 7.60445 11.395 5.72662 12.7796 4.34206C14.1641 2.95751 16.0419 2.17969 18 2.17969C19.9581 2.17969 21.8358 2.95751 23.2204 4.34206C24.605 5.72662 25.3828 7.60445 25.3828 9.5625V14.8359" stroke="#070822" stroke-width="1.5" stroke-linecap="round" stroke-linejoin="round"/>
<path d="M13.2539 22.2188C12.9627 22.2188 12.7266 21.9826 12.7266 21.6914C12.7266 21.4002 12.9627 21.1641 13.2539 21.1641" stroke="#070822" stroke-width="1.5"/>
<path d="M13.2539 22.2188C13.5452 22.2188 13.7812 21.9826 13.7812 21.6914C13.7812 21.4002 13.5452 21.1641 13.2539 21.1641" stroke="#070822" stroke-width="1.5"/>
<path d="M13.2539 27.4922C12.9627 27.4922 12.7266 27.2561 12.7266 26.9648C12.7266 26.6736 12.9627 26.4375 13.2539 26.4375" stroke="#070822" stroke-width="1.5"/>
<path d="M13.2539 27.4922C13.5452 27.4922 13.7812 27.2561 13.7812 26.9648C13.7812 26.6736 13.5452 26.4375 13.2539 26.4375" stroke="#070822" stroke-width="1.5"/>
<path d="M18 22.2188C17.7088 22.2188 17.4727 21.9826 17.4727 21.6914C17.4727 21.4002 17.7088 21.1641 18 21.1641" stroke="#070822" stroke-width="1.5"/>
<path d="M18 22.2188C18.2912 22.2188 18.5273 21.9826 18.5273 21.6914C18.5273 21.4002 18.2912 21.1641 18 21.1641" stroke="#070822" stroke-width="1.5"/>
<path d="M18 27.4922C17.7088 27.4922 17.4727 27.2561 17.4727 26.9648C17.4727 26.6736 17.7088 26.4375 18 26.4375" stroke="#070822" stroke-width="1.5"/>
<path d="M18 27.4922C18.2912 27.4922 18.5273 27.2561 18.5273 26.9648C18.5273 26.6736 18.2912 26.4375 18 26.4375" stroke="#070822" stroke-width="1.5"/>
<path d="M22.7461 22.2188C22.4549 22.2188 22.2188 21.9826 22.2188 21.6914C22.2188 21.4002 22.4549 21.1641 22.7461 21.1641" stroke="#070822" stroke-width="1.5"/>
<path d="M22.7461 22.2188C23.0373 22.2188 23.2734 21.9826 23.2734 21.6914C23.2734 21.4002 23.0373 21.1641 22.7461 21.1641" stroke="#070822" stroke-width="1.5"/>
<path d="M22.7461 27.4922C22.4549 27.4922 22.2188 27.2561 22.2188 26.9648C22.2188 26.6736 22.4549 26.4375 22.7461 26.4375" stroke="#070822" stroke-width="1.5"/>
<path d="M22.7461 27.4922C23.0373 27.4922 23.2734 27.2561 23.2734 26.9648C23.2734 26.6736 23.0373 26.4375 22.7461 26.4375" stroke="#070822" stroke-width="1.5"/>
</svg>
