<svg width="24" height="28" viewBox="0 0 24 28" fill="none" xmlns="http://www.w3.org/2000/svg">
<path d="M18.1749 13.5468V4C18.1749 2.34315 16.8317 1 15.1749 1H4.125C2.46815 1 1.125 2.34314 1.125 4V23.0937C1.125 24.7505 2.46815 26.0937 4.125 26.0937H11.5568" stroke="#070822" stroke-linecap="round"/>
<path d="M16.2477 20.5859H22.212C22.212 20.5859 22.8748 20.5859 22.8748 21.2987V26.288C22.8748 26.288 22.8748 27.0008 22.212 27.0008H16.2477C16.2477 27.0008 15.585 27.0008 15.585 26.288V21.2987C15.585 21.2987 15.585 20.5859 16.2477 20.5859Z" stroke="#070822" stroke-linecap="round" stroke-linejoin="round"/>
<path d="M16.9111 20.5813V18.7994C16.9111 18.1377 17.1555 17.5032 17.5905 17.0354C18.0255 16.5675 18.6154 16.3047 19.2306 16.3047C19.8458 16.3047 20.4357 16.5675 20.8707 17.0354C21.3057 17.5032 21.5501 18.1377 21.5501 18.7994" stroke="#070822" stroke-linecap="round" stroke-linejoin="round"/>
<path d="M19.231 23.0781V24.5037" stroke="#070822" stroke-linecap="round" stroke-linejoin="round"/>
<circle cx="9.64986" cy="20.7866" r="1.39595" fill="#070822"/>
</svg>
