<svg width="17" height="16" viewBox="0 0 17 16" fill="none" xmlns="http://www.w3.org/2000/svg">
<path d="M14.2812 13.7812C14.2812 14.1128 14.1496 14.4307 13.9151 14.6651C13.6807 14.8996 13.3628 15.0312 13.0312 15.0312H3.96875C3.63723 15.0312 3.31929 14.8996 3.08487 14.6651C2.85045 14.4307 2.71875 14.1128 2.71875 13.7812L2.71875 2.21875C2.71875 1.88723 2.85045 1.56929 3.08487 1.33487C3.31929 1.10045 3.63723 0.96875 3.96875 0.96875L10.2188 0.96875L14.2812 5.03125V13.7812Z" stroke="#5E5F6E" stroke-linecap="round" stroke-linejoin="round"/>
<path d="M14.2812 5.03125H11.4688C11.1372 5.03125 10.8193 4.89955 10.5849 4.66513C10.3504 4.43071 10.2188 4.11277 10.2188 3.78125V0.96875L14.2812 5.03125Z" stroke="#5E5F6E" stroke-linecap="round" stroke-linejoin="round"/>
<path d="M5.3584 8.89825L7.3322 7.36104L9.30601 8.89825L11.9377 6.84863" stroke="#5E5F6E" stroke-linecap="round" stroke-linejoin="round"/>
<path d="M11.9375 10.8447H5.0625" stroke="#5E5F6E" stroke-linecap="round" stroke-linejoin="round"/>
<path d="M8.35 12.9775H5.0625" stroke="#5E5F6E" stroke-linecap="round" stroke-linejoin="round"/>
</svg>
