<svg width="36" height="36" viewBox="0 0 36 36" fill="none" xmlns="http://www.w3.org/2000/svg">
<path d="M27.4922 14.8359H8.50781C7.34283 14.8359 6.39844 15.7804 6.39844 16.9453V31.7109C6.39844 32.8759 7.34283 33.8203 8.50781 33.8203H27.4922C28.6571 33.8203 29.6016 32.8759 29.6016 31.7109V16.9453C29.6016 15.7804 28.6571 14.8359 27.4922 14.8359Z" stroke="#070822" stroke-width="1.5" stroke-linecap="round" stroke-linejoin="round"/>
<path d="M10.6172 14.8359V9.5625C10.6172 7.60445 11.395 5.72662 12.7796 4.34206C14.1641 2.95751 16.0419 2.17969 18 2.17969C19.9581 2.17969 21.8358 2.95751 23.2204 4.34206C24.605 5.72662 25.3828 7.60445 25.3828 9.5625V14.8359" stroke="#070822" stroke-width="1.5" stroke-linecap="round" stroke-linejoin="round"/>
<path d="M15.0211 25.1211V27.3639H12.7783" stroke="#070822" stroke-width="1.5" stroke-linecap="round" stroke-linejoin="round"/>
<path d="M14.8805 27.3654C14.1094 26.5593 13.6391 25.5126 13.5483 24.4008C13.4576 23.2891 13.752 22.1799 14.3821 21.2595C15.0122 20.3391 15.9397 19.6634 17.009 19.3457C18.0783 19.0281 19.2243 19.0879 20.2547 19.5151" stroke="#070822" stroke-width="1.5" stroke-linecap="round" stroke-linejoin="round"/>
<path d="M14.8773 27.3615C14.0489 26.4956 13.5707 25.3534 13.5353 24.1556C13.4999 22.9577 13.9097 21.7893 14.6856 20.876C15.4614 19.9627 16.5483 19.3694 17.7361 19.2107C18.9239 19.0519 20.1283 19.3391 21.1167 20.0167C22.1052 20.6943 22.8073 21.7142 23.0876 22.8793C23.3679 24.0444 23.2064 25.2721 22.6344 26.3251C22.0623 27.378 21.1202 28.1816 19.9902 28.5805C19.3229 28.8161 18.618 28.9007 17.9248 28.8356" stroke="#070822" stroke-width="1.5" stroke-linecap="round" stroke-linejoin="round"/>
</svg>
