<svg width="17" height="17" viewBox="0 0 17 17" fill="none" xmlns="http://www.w3.org/2000/svg">
<path d="M6.85998 11.0058C6.64479 11.0058 6.47034 10.8314 6.47034 10.6162C6.47034 10.401 6.64479 10.2266 6.85998 10.2266" stroke="#5E5F6E"/>
<path d="M6.85999 11.0058C7.07517 11.0058 7.24963 10.8314 7.24963 10.6162C7.24963 10.401 7.07517 10.2266 6.85999 10.2266" stroke="#5E5F6E"/>
<path d="M6.85999 7.89057V4.77344" stroke="#5E5F6E" stroke-linecap="round" stroke-linejoin="round"/>
<path d="M12.8999 10.6755C13.0405 10.9565 13.107 11.2689 13.0929 11.5829C13.0789 11.8969 12.9847 12.202 12.8195 12.4695C12.6543 12.7368 12.4235 12.9575 12.1488 13.1106C11.8743 13.2635 11.5652 13.3439 11.2509 13.3438H2.46888C2.15457 13.3439 1.84545 13.2635 1.57094 13.1106C1.29632 12.9575 1.06544 12.7368 0.900234 12.4695C0.735026 12.202 0.640889 11.8969 0.626862 11.5829C0.612731 11.2689 0.67923 10.9565 0.819917 10.6755L5.21092 1.89451C5.36397 1.5881 5.59932 1.33052 5.89056 1.15045C6.18181 0.970384 6.51742 0.875 6.85989 0.875C7.20235 0.875 7.53797 0.970384 7.82921 1.15045C8.12046 1.33052 8.3558 1.5881 8.50885 1.89451L12.8999 10.6755Z" stroke="#5E5F6E" stroke-linecap="round" stroke-linejoin="round"/>
<path d="M7.95001 10.5315C7.95001 9.13338 9.08339 8 10.4815 8H12.1063C14.4017 8 16.2625 9.86082 16.2625 12.1562C16.2625 14.4517 14.4017 16.3125 12.1063 16.3125H10.3428C9.02131 16.3125 7.95001 15.2412 7.95001 13.9197V10.5315Z" fill="#F4F4F6"/>
<path d="M10.4517 14.958V8.94922" stroke="#5E5F6E" stroke-linecap="round" stroke-linejoin="round"/>
<path d="M9.25006 10.151L10.4518 8.94922L11.6536 10.151" stroke="#5E5F6E" stroke-linecap="round" stroke-linejoin="round"/>
<path d="M12.52 13H15.0552" stroke="#5E5F6E" stroke-linecap="round"/>
<path d="M12.52 11.4883H15.7247" stroke="#5E5F6E" stroke-linecap="round"/>
<path d="M12.52 14.6914H14.1224" stroke="#5E5F6E" stroke-linecap="round"/>
</svg>
