<svg width="189" height="84" viewBox="0 0 189 84" fill="none" xmlns="http://www.w3.org/2000/svg">
<g opacity="0.3">
<path d="M43.3801 88.3966C67.0946 124.728 115.771 134.955 152.102 111.241L219.452 67.2794L177.024 2.27953C153.027 -34.484 103.377 -44.5763 66.6135 -20.5795C30.2826 3.13503 19.6656 52.0656 43.3801 88.3966Z" fill="#F2F3FC"/>
<path d="M61.9288 86.1703C83.1451 118.674 126.694 127.824 159.197 106.608L219.452 67.2778L181.494 9.12533C160.025 -23.7653 115.605 -32.7944 82.7147 -11.3256C50.211 9.89072 40.7125 53.6667 61.9288 86.1703Z" fill="#E1E2F9"/>
<path d="M79.2894 84.0903C98.1674 113.012 136.916 121.153 165.838 102.275L219.451 67.2799L185.677 15.5366C166.574 -13.7291 127.05 -21.7631 97.7844 -2.66041C68.8631 16.2176 60.4114 55.1689 79.2894 84.0903Z" fill="#C8C9F4"/>
<path d="M99.6233 81.6524C115.763 106.378 148.89 113.338 173.615 97.1992L219.451 67.2808L190.576 23.0443C174.245 -1.97559 140.455 -8.84409 115.435 7.48728C90.7096 23.6265 83.4841 56.9268 99.6233 81.6524Z" fill="#AAACEE"/>
<path d="M122.136 78.9503C135.243 99.0304 162.146 104.683 182.226 91.5763L219.45 67.2789L196.001 31.3534C182.738 11.0342 155.296 5.45623 134.977 18.7193C114.897 31.8263 109.029 58.8702 122.136 78.9503Z" fill="#8D8FE8"/>
</g>
</svg>
