<svg width="17" height="16" viewBox="0 0 17 16" fill="none" xmlns="http://www.w3.org/2000/svg">
<path d="M10.7964 3.40617H13.0932C13.3368 3.40617 13.5706 3.50296 13.7429 3.67525C13.9151 3.84755 14.0119 4.08123 14.0119 4.32489V13.9714C14.0119 14.2151 13.9151 14.4488 13.7429 14.6211C13.5706 14.7934 13.3368 14.8901 13.0932 14.8901H3.90602C3.66237 14.8901 3.42868 14.7934 3.25639 14.6211C3.0841 14.4488 2.9873 14.2151 2.9873 13.9714L2.9873 4.32489C2.9873 4.08123 3.0841 3.84755 3.25639 3.67525C3.42868 3.50296 3.66237 3.40617 3.90602 3.40617H6.20282C6.20282 2.79702 6.4448 2.21282 6.87553 1.78209C7.30626 1.35136 7.89044 1.10937 8.49961 1.10937C9.10878 1.10937 9.69296 1.35136 10.1237 1.78209C10.5544 2.21282 10.7964 2.79702 10.7964 3.40617Z" stroke="#5E5F6E" stroke-linecap="round" stroke-linejoin="round"/>
<path d="M8.49921 3.40662C8.37237 3.40662 8.26953 3.3038 8.26953 3.17694C8.26953 3.05009 8.37237 2.94727 8.49921 2.94727" stroke="#5E5F6E"/>
<path d="M8.5 3.40662C8.62684 3.40662 8.72968 3.3038 8.72968 3.17694C8.72968 3.05009 8.62684 2.94727 8.5 2.94727" stroke="#5E5F6E"/>
<path d="M5.28418 7.08105H8.49969" stroke="#5E5F6E" stroke-linecap="round" stroke-linejoin="round"/>
<path d="M10.3369 7.08105H11.715" stroke="#5E5F6E" stroke-linecap="round" stroke-linejoin="round"/>
<path d="M11.7155 9.37793H8.5" stroke="#5E5F6E" stroke-linecap="round" stroke-linejoin="round"/>
<path d="M6.66226 9.37793H5.28418" stroke="#5E5F6E" stroke-linecap="round" stroke-linejoin="round"/>
<path d="M5.28418 11.6748H8.49969" stroke="#5E5F6E" stroke-linecap="round" stroke-linejoin="round"/>
<path d="M10.3369 11.6748H11.715" stroke="#5E5F6E" stroke-linecap="round" stroke-linejoin="round"/>
</svg>
