<svg width="17" height="16" viewBox="0 0 17 16" fill="none" xmlns="http://www.w3.org/2000/svg">
<path d="M7.23535 14.165C7.31566 14.4386 7.48242 14.6788 7.71066 14.8497C7.9389 15.0206 8.21635 15.1129 8.50146 15.1129C8.78658 15.1129 9.06402 15.0206 9.29226 14.8497C9.5205 14.6788 9.68726 14.4386 9.76757 14.165" stroke="#5E5F6E" stroke-linecap="round" stroke-linejoin="round"/>
<path d="M8.5 2.31029V0.887695" stroke="#5E5F6E" stroke-linecap="round" stroke-linejoin="round"/>
<path d="M8.49995 2.31055C9.7576 2.31055 10.9637 2.81015 11.853 3.69944C12.7423 4.58874 13.2419 5.79488 13.2419 7.05253C13.2419 11.5075 14.1903 12.2687 14.1903 12.2687H2.80957C2.80957 12.2687 3.75797 11.0573 3.75797 7.05253C3.75797 5.79488 4.25757 4.58874 5.14686 3.69944C6.03616 2.81015 7.2423 2.31055 8.49995 2.31055Z" stroke="#5E5F6E" stroke-linecap="round" stroke-linejoin="round"/>
</svg>
