<svg width="17" height="16" viewBox="0 0 17 16" fill="none" xmlns="http://www.w3.org/2000/svg">
<g clip-path="url(#clip0_3301_26291)">
<path d="M8.49991 4.75391C8.07364 4.75391 7.65154 4.83787 7.25772 5.00099C6.86389 5.16412 6.50606 5.40322 6.20464 5.70464C5.90322 6.00606 5.66412 6.36389 5.50099 6.75772C5.33787 7.15154 5.25391 7.57364 5.25391 7.99991C5.25391 8.42618 5.33787 8.84827 5.50099 9.2421C5.66412 9.63592 5.90322 9.99376 6.20464 10.2952C6.50606 10.5966 6.86389 10.8357 7.25772 10.9988C7.65154 11.1619 8.07364 11.2459 8.49991 11.2459C9.3608 11.2459 10.1864 10.9039 10.7952 10.2952C11.4039 9.68643 11.7459 8.8608 11.7459 7.99991C11.7459 7.13901 11.4039 6.31338 10.7952 5.70464C10.1864 5.09589 9.3608 4.75391 8.49991 4.75391ZM6.25391 7.99991C6.25391 7.40423 6.49054 6.83295 6.91174 6.41174C7.33295 5.99054 7.90423 5.75391 8.49991 5.75391C9.09558 5.75391 9.66686 5.99054 10.0881 6.41174C10.5093 6.83295 10.7459 7.40423 10.7459 7.99991C10.7459 8.59558 10.5093 9.16686 10.0881 9.58807C9.66686 10.0093 9.09558 10.2459 8.49991 10.2459C7.90423 10.2459 7.33295 10.0093 6.91174 9.58807C6.49054 9.16686 6.25391 8.59558 6.25391 7.99991Z" fill="currentColor"/>
<path d="M10.2955 1.3425C9.7685 -0.4475 7.2305 -0.4475 6.7035 1.3425L6.6095 1.6615C6.5727 1.78645 6.5084 1.90158 6.42132 1.99846C6.33424 2.09533 6.22658 2.17149 6.10624 2.22135C5.9859 2.27121 5.85593 2.29351 5.72585 2.28662C5.59578 2.27972 5.46889 2.24381 5.3545 2.1815L5.0625 2.0215C3.4225 1.1295 1.6295 2.9235 2.5225 4.5625L2.6815 4.8545C2.74381 4.96889 2.77972 5.09578 2.78662 5.22585C2.79351 5.35593 2.77121 5.4859 2.72135 5.60624C2.67149 5.72658 2.59533 5.83424 2.49846 5.92132C2.40158 6.0084 2.28645 6.0727 2.1615 6.1095L1.8425 6.2035C0.0525 6.7305 0.0525 9.2685 1.8425 9.7955L2.1615 9.8895C2.28645 9.9263 2.40158 9.9906 2.49846 10.0777C2.59533 10.1648 2.67149 10.2724 2.72135 10.3928C2.77121 10.5131 2.79351 10.6431 2.78662 10.7731C2.77972 10.9032 2.74381 11.0301 2.6815 11.1445L2.5215 11.4365C1.6295 13.0765 3.4225 14.8705 5.0625 13.9765L5.3545 13.8175C5.46889 13.7552 5.59578 13.7193 5.72585 13.7124C5.85593 13.7055 5.9859 13.7278 6.10624 13.7776C6.22658 13.8275 6.33424 13.9037 6.42132 14.0005C6.5084 14.0974 6.5727 14.2125 6.6095 14.3375L6.7035 14.6565C7.2305 16.4465 9.7685 16.4465 10.2955 14.6565L10.3895 14.3375C10.4263 14.2125 10.4906 14.0974 10.5777 14.0005C10.6648 13.9037 10.7724 13.8275 10.8928 13.7776C11.0131 13.7278 11.1431 13.7055 11.2731 13.7124C11.4032 13.7193 11.5301 13.7552 11.6445 13.8175L11.9365 13.9775C13.5765 14.8705 15.3705 13.0755 14.4765 11.4365L14.3175 11.1445C14.2552 11.0301 14.2193 10.9032 14.2124 10.7731C14.2055 10.6431 14.2278 10.5131 14.2776 10.3928C14.3275 10.2724 14.4037 10.1648 14.5005 10.0777C14.5974 9.9906 14.7125 9.9263 14.8375 9.8895L15.1565 9.7955C16.9465 9.2685 16.9465 6.7305 15.1565 6.2035L14.8375 6.1095C14.7125 6.0727 14.5974 6.0084 14.5005 5.92132C14.4037 5.83424 14.3275 5.72658 14.2776 5.60624C14.2278 5.4859 14.2055 5.35593 14.2124 5.22585C14.2193 5.09578 14.2552 4.96889 14.3175 4.8545L14.4775 4.5625C15.3705 2.9225 13.5755 1.1295 11.9365 2.0225L11.6445 2.1815C11.5301 2.24381 11.4032 2.27972 11.2731 2.28662C11.1431 2.29351 11.0131 2.27121 10.8928 2.22135C10.7724 2.17149 10.6648 2.09533 10.5777 1.99846C10.4906 1.90158 10.4263 1.78645 10.3895 1.6615L10.2955 1.3425ZM7.6625 1.6255C7.9085 0.7905 9.0905 0.7905 9.3365 1.6255L9.4305 1.9445C9.50952 2.21259 9.64754 2.45959 9.83443 2.6674C10.0213 2.87521 10.2523 3.03856 10.5106 3.14548C10.7688 3.2524 11.0477 3.30017 11.3268 3.28529C11.6059 3.27041 11.8781 3.19326 12.1235 3.0595L12.4145 2.8995C13.1785 2.4845 14.0145 3.3195 13.5985 4.0845L13.4395 4.3765C13.3059 4.62193 13.229 4.89413 13.2143 5.17316C13.1995 5.45218 13.2474 5.73097 13.3544 5.98908C13.4615 6.2472 13.6249 6.4781 13.8327 6.66488C14.0405 6.85165 14.2875 6.98956 14.5555 7.0685L14.8735 7.1625C15.7085 7.4085 15.7085 8.5905 14.8735 8.8365L14.5545 8.9305C14.2864 9.00952 14.0394 9.14754 13.8316 9.33443C13.6238 9.52132 13.4604 9.75235 13.3535 10.0106C13.2466 10.2688 13.1988 10.5477 13.2137 10.8268C13.2286 11.1059 13.3057 11.3781 13.4395 11.6235L13.5995 11.9145C14.0145 12.6785 13.1795 13.5145 12.4145 13.0985L12.1235 12.9395C11.878 12.8057 11.6057 12.7286 11.3266 12.7138C11.0474 12.699 10.7685 12.7469 10.5103 12.8539C10.252 12.9609 10.021 13.1244 9.83418 13.3323C9.64734 13.5402 9.50941 13.7873 9.4305 14.0555L9.3365 14.3735C9.0905 15.2085 7.9085 15.2085 7.6625 14.3735L7.5685 14.0545C7.48944 13.7866 7.35145 13.5397 7.16463 13.332C6.97781 13.1243 6.74689 12.961 6.48879 12.8541C6.23069 12.7472 5.95194 12.6994 5.67297 12.7141C5.394 12.7289 5.12186 12.8059 4.8765 12.9395L4.5845 13.0995C3.8205 13.5145 2.9845 12.6795 3.4005 11.9145L3.5595 11.6235C3.69345 11.3781 3.77075 11.1057 3.78573 10.8265C3.8007 10.5473 3.75297 10.2683 3.64604 10.0099C3.53911 9.75158 3.37569 9.52044 3.16778 9.33348C2.95986 9.14652 2.71272 9.00849 2.4445 8.9295L2.1255 8.8355C1.2905 8.5895 1.2905 7.4075 2.1255 7.1615L2.4445 7.0675C2.71231 6.98841 2.95904 6.85044 3.16664 6.66369C3.37425 6.47694 3.53746 6.24613 3.64435 5.98816C3.75124 5.73018 3.7991 5.45157 3.78442 5.17272C3.76973 4.89387 3.69289 4.62182 3.5595 4.3765L3.3995 4.0845C2.9845 3.3205 3.8195 2.4845 4.5845 2.9005L4.8765 3.0595C5.12186 3.19308 5.394 3.27007 5.67297 3.28485C5.95194 3.29963 6.23069 3.25182 6.48879 3.14492C6.74689 3.03801 6.97781 2.87473 7.16463 2.66702C7.35145 2.45931 7.48944 2.21245 7.5685 1.9445L7.6625 1.6255Z" fill="currentColor"/>
</g>
<defs>
<clipPath id="clip0_3301_26291">
<rect width="16" height="16" fill="white" transform="translate(0.5)"/>
</clipPath>
</defs>
</svg>
