<svg width="143" height="36" viewBox="0 0 143 36" fill="none" xmlns="http://www.w3.org/2000/svg">
<g clip-path="url(#clip0_1221_31080)">
<path fill-rule="evenodd" clip-rule="evenodd" d="M45.5259 28.3459L47.298 24.2201C49.2122 25.6542 51.7625 26.3997 54.2788 26.3997C56.1361 26.3997 57.3119 25.6827 57.3119 24.5957C57.2835 21.5568 46.1848 23.9356 46.0996 16.3156C46.0712 12.4459 49.5019 9.46387 54.364 9.46387C57.2551 9.46387 60.1405 10.1809 62.2024 11.8142L60.5438 16.0254C58.658 14.8189 56.3122 13.9596 54.08 13.9596C52.5634 13.9596 51.5637 14.6766 51.5637 15.5929C51.5921 18.5748 62.776 16.9416 62.8896 24.2201C62.8896 28.1752 59.5441 30.958 54.7388 30.958C51.2172 30.9523 47.9853 30.1215 45.5259 28.3459ZM113.578 22.7291C112.692 24.277 111.033 25.3355 109.113 25.3355C106.279 25.3355 103.996 23.0421 103.996 20.2081C103.996 17.3741 106.285 15.0807 109.113 15.0807C111.028 15.0807 112.692 16.1392 113.578 17.6871L118.468 14.9669C116.639 11.7004 113.118 9.46387 109.113 9.46387C103.189 9.46387 98.384 14.2783 98.384 20.2138C98.384 26.1493 103.189 30.9637 109.113 30.9637C113.146 30.9637 116.639 28.7557 118.468 25.4607L113.578 22.7291ZM65.3491 0.546387H71.4721V30.554H65.3491V0.546387ZM120.871 0.546387V30.554H126.994V21.5511L134.259 30.554H142.097L132.856 19.861L141.41 9.88499H133.912L126.988 18.1651V0.546387H120.871Z" fill="#5E5F6E"/>
<path d="M89.6652 22.7859C88.7791 24.2484 86.9501 25.3353 84.8883 25.3353C82.054 25.3353 79.7706 23.0419 79.7706 20.2079C79.7706 17.3739 82.0596 15.0805 84.8883 15.0805C86.9501 15.0805 88.7791 16.2244 89.6652 17.7154V22.7859ZM89.6652 9.89051V12.3262C88.6655 10.636 86.1776 9.45801 83.5705 9.45801C78.1916 9.45801 73.96 14.2155 73.96 20.1795C73.96 26.1434 78.1916 30.9578 83.5705 30.9578C86.172 30.9578 88.6598 29.7855 89.6652 28.0897V30.5254H95.7882V9.89051H89.6652Z" fill="#5E5F6E"/>
<path fill-rule="evenodd" clip-rule="evenodd" d="M7.67989 22.7575C7.67989 24.8517 5.99293 26.5419 3.90269 26.5419C1.81245 26.5419 0.125488 24.8461 0.125488 22.7575C0.125488 20.669 1.81245 18.9731 3.90269 18.9731H7.67989V22.7575ZM9.56565 22.7575C9.56565 20.6633 11.2526 18.9731 13.3428 18.9731C15.4331 18.9731 17.12 20.6633 17.12 22.7575V32.2156C17.12 34.3098 15.4331 36 13.3428 36C11.2526 36 9.56565 34.3098 9.56565 32.2156V22.7575Z" fill="#5E5F6E"/>
<path fill-rule="evenodd" clip-rule="evenodd" d="M13.3429 7.56876C11.2527 7.56876 9.56573 5.8786 9.56573 3.78438C9.56573 1.69017 11.2527 0 13.3429 0C15.4332 0 17.1201 1.69017 17.1201 3.78438V7.56876H13.3429ZM13.3429 9.48656C15.4332 9.48656 17.1201 11.1767 17.1201 13.2709C17.1201 15.3652 15.4332 17.0553 13.3429 17.0553H3.87437C1.78413 17.0553 0.097168 15.3595 0.097168 13.2709C0.097168 11.1824 1.78413 9.48656 3.87437 9.48656H13.3429Z" fill="#5E5F6E"/>
<path fill-rule="evenodd" clip-rule="evenodd" d="M28.4743 13.2709C28.4743 11.1767 30.1613 9.48656 32.2515 9.48656C34.3418 9.48656 36.0287 11.1767 36.0287 13.2709C36.0287 15.3652 34.3418 17.0553 32.2515 17.0553H28.4743V13.2709ZM26.5886 13.2709C26.5886 15.3652 24.9016 17.0553 22.8114 17.0553C20.7211 17.0553 19.0342 15.3652 19.0342 13.2709V3.78438C19.0342 1.69017 20.7211 0 22.8114 0C24.9016 0 26.5886 1.69017 26.5886 3.78438V13.2709Z" fill="#5E5F6E"/>
<path fill-rule="evenodd" clip-rule="evenodd" d="M22.8114 28.4313C24.9016 28.4313 26.5886 30.1214 26.5886 32.2156C26.5886 34.3098 24.9016 36 22.8114 36C20.7211 36 19.0342 34.3098 19.0342 32.2156V28.4313H22.8114ZM22.8114 26.5419C20.7211 26.5419 19.0342 24.8517 19.0342 22.7575C19.0342 20.6633 20.7211 18.9731 22.8114 18.9731H32.2799C34.3702 18.9731 36.0571 20.6633 36.0571 22.7575C36.0571 24.8517 34.3702 26.5419 32.2799 26.5419H22.8114Z" fill="#5E5F6E"/>
</g>
<defs>
<clipPath id="clip0_1221_31080">
<rect width="142" height="36" fill="white" transform="translate(0.097168)"/>
</clipPath>
</defs>
</svg>
