<svg width="36" height="36" viewBox="0 0 36 36" fill="none" xmlns="http://www.w3.org/2000/svg">
<path d="M27.4922 14.8359H8.50781C7.34283 14.8359 6.39844 15.7804 6.39844 16.9453V31.7109C6.39844 32.8759 7.34283 33.8203 8.50781 33.8203H27.4922C28.6571 33.8203 29.6016 32.8759 29.6016 31.7109V16.9453C29.6016 15.7804 28.6571 14.8359 27.4922 14.8359Z" stroke="#077D48" stroke-width="1.5" stroke-linecap="round" stroke-linejoin="round"/>
<path d="M10.6172 14.8359V9.5625C10.6172 7.60445 11.395 5.72662 12.7796 4.34206C14.1641 2.95751 16.0419 2.17969 18 2.17969C19.9581 2.17969 21.8358 2.95751 23.2204 4.34206C24.605 5.72662 25.3828 7.60445 25.3828 9.5625V14.8359" stroke="#077D48" stroke-width="1.5" stroke-linecap="round" stroke-linejoin="round"/>
<path d="M23.9083 19.9219L16.6085 28.1031C16.352 28.3575 16.0058 28.501 15.6444 28.5025C15.4563 28.5091 15.2687 28.4771 15.0934 28.4084C14.9181 28.3397 14.7588 28.2358 14.6252 28.1031L12.2012 25.7479" stroke="#077D48" stroke-width="1.5" stroke-linecap="round" stroke-linejoin="round"/>
</svg>
