<svg width="17" height="16" viewBox="0 0 17 16" fill="none" xmlns="http://www.w3.org/2000/svg">
<g clip-path="url(#clip0_3301_26237)">
<path d="M2.875 8C2.875 9.49184 3.46763 10.9226 4.52252 11.9775C5.57742 13.0324 7.00816 13.625 8.5 13.625C9.99184 13.625 11.4226 13.0324 12.4775 11.9775C13.5324 10.9226 14.125 9.49184 14.125 8C14.125 6.50816 13.5324 5.07742 12.4775 4.02252C11.4226 2.96763 9.99184 2.375 8.5 2.375C7.00816 2.375 5.57742 2.96763 4.52252 4.02252C3.46763 5.07742 2.875 6.50816 2.875 8Z" stroke="#5E5F6E" stroke-linecap="round" stroke-linejoin="round"/>
<path d="M8.5 10.5C8.4337 10.5 8.37011 10.4737 8.32322 10.4268C8.27634 10.3799 8.25 10.3163 8.25 10.25C8.25 10.1837 8.27634 10.1201 8.32322 10.0732C8.37011 10.0263 8.4337 10 8.5 10" stroke="#5E5F6E"/>
<path d="M8.5 10.5C8.5663 10.5 8.62989 10.4737 8.67678 10.4268C8.72366 10.3799 8.75 10.3163 8.75 10.25C8.75 10.1837 8.72366 10.1201 8.67678 10.0732C8.62989 10.0263 8.5663 10 8.5 10" stroke="#5E5F6E"/>
<path d="M8.5 8.5V5.5" stroke="#5E5F6E" stroke-linecap="round" stroke-linejoin="round"/>
<path d="M13.1875 8H15.5312" stroke="#5E5F6E" stroke-linecap="round" stroke-linejoin="round"/>
<path d="M8.5 3.3125V0.96875" stroke="#5E5F6E" stroke-linecap="round" stroke-linejoin="round"/>
<path d="M3.8125 8H1.46875" stroke="#5E5F6E" stroke-linecap="round" stroke-linejoin="round"/>
<path d="M8.5 12.6875V15.0312" stroke="#5E5F6E" stroke-linecap="round" stroke-linejoin="round"/>
</g>
<defs>
<clipPath id="clip0_3301_26237">
<rect width="16" height="16" fill="white" transform="translate(0.5)"/>
</clipPath>
</defs>
</svg>
