<svg width="154" height="125" viewBox="0 0 154 125" fill="none" xmlns="http://www.w3.org/2000/svg">
<g opacity="0.3">
<path d="M81.2002 -37.4331H173.5V37.4673C173.5 85.2397 134.772 123.967 87 123.967H81.2002C36.6309 123.967 0.500107 87.8364 0.5 43.2671C0.5 -1.30227 36.6308 -37.4331 81.2002 -37.4331Z" fill="white" stroke="#C8C8D0"/>
<path d="M94.6631 -37.4331H173.5V26.5278C173.5 67.3297 140.423 100.407 99.6211 100.407H94.6631C56.5999 100.407 25.7433 69.55 25.7432 31.4868C25.7432 -6.57647 56.5998 -37.4331 94.6631 -37.4331Z" fill="white" stroke="#D6D6DC"/>
<path d="M109.568 -37.4331H173.5V14.4175C173.5 47.5014 146.68 74.3217 113.596 74.3218H109.568C78.7083 74.3217 53.6914 49.3039 53.6914 18.4438C53.6915 -12.4161 78.7084 -37.433 109.568 -37.4331Z" fill="white" stroke="#E4E4E8"/>
</g>
</svg>
