<svg width="164" height="175" viewBox="0 0 164 175" fill="none" xmlns="http://www.w3.org/2000/svg">
<g opacity="0.3">
<path d="M112.533 179.833H0.5V83.3994C0.500243 28.4473 45.0479 -16.1005 100 -16.1006H112.533C166.639 -16.1006 210.5 27.7609 210.5 81.8662C210.5 135.549 167.322 179.147 113.8 179.825L112.533 179.833Z" fill="white" stroke="#C8C8D0"/>
<path d="M96.207 179.833H0.5V102.165C0.5 52.6283 40.6576 12.4708 90.1943 12.4707H96.207C142.423 12.4707 179.888 49.9356 179.889 96.1514C179.889 142.367 142.423 179.833 96.207 179.833Z" fill="white" stroke="#D6D6DC"/>
<path d="M78.1328 179.833H0.500977V116.851C0.501127 76.6729 33.0713 44.1027 73.249 44.1025H78.1328C115.614 44.1026 145.998 74.4868 145.998 111.968C145.998 149.449 115.614 179.833 78.1328 179.833Z" fill="white" stroke="#E4E4E8"/>
</g>
</svg>
