<svg width="24" height="25" viewBox="0 0 24 25" fill="none" xmlns="http://www.w3.org/2000/svg">
<path d="M16.7607 2.18286C16.9093 2.10157 17.0986 2.08941 17.2686 2.177H17.2695L22.3262 4.79028C22.4939 4.87694 22.5488 5.00668 22.5488 5.11646C22.5488 5.22623 22.4939 5.35598 22.3262 5.44263L17.2695 8.05591H17.2686C17.0986 8.1435 16.9093 8.13134 16.7607 8.05005C16.6137 7.96961 16.5488 7.84928 16.5488 7.72876V2.50415C16.5488 2.38362 16.6137 2.2633 16.7607 2.18286Z" stroke="currentColor" stroke-width="1.5"/>
<path d="M12.401 3.71655H2.24805C0.748047 3.71655 0.748047 5.21655 0.748047 5.21655V17.2166C0.748047 18.7166 2.24805 18.7166 2.24805 18.7166H21.748C23.248 18.7166 23.248 17.2166 23.248 17.2166V9.86655" stroke="currentColor" stroke-width="1.5" stroke-linecap="round" stroke-linejoin="round"/>
<path d="M19.5 22.3226C18.6007 21.197 17.4596 20.2883 16.1613 19.6638C14.8629 19.0394 13.4407 18.7151 12 18.7151C10.5593 18.7151 9.13707 19.0394 7.83875 19.6638C6.54043 20.2883 5.39931 21.197 4.5 22.3226" stroke="currentColor" stroke-width="1.5" stroke-linecap="round" stroke-linejoin="round"/>
</svg>
