<svg width="25" height="24" viewBox="0 0 25 24" fill="none" xmlns="http://www.w3.org/2000/svg">
<path d="M1.95312 16.9204C1.95384 15.8742 2.21379 14.8445 2.70974 13.9234C3.20569 13.0023 3.92218 12.2184 4.79515 11.6419C5.66811 11.0653 6.67034 10.7141 7.71223 10.6196C8.75412 10.5251 9.80318 10.6903 10.7656 11.1004" stroke="#5E5F6E" stroke-linecap="round" stroke-linejoin="round"/>
<path d="M4.41406 5.32031C4.41406 6.34595 4.8215 7.32959 5.54674 8.05483C6.27197 8.78007 7.25561 9.1875 8.28125 9.1875C9.30689 9.1875 10.2905 8.78007 11.0158 8.05483C11.741 7.32959 12.1484 6.34595 12.1484 5.32031C12.1484 4.29467 11.741 3.31104 11.0158 2.5858C10.2905 1.86056 9.30689 1.45313 8.28125 1.45312C7.25561 1.45313 6.27197 1.86056 5.54674 2.5858C4.8215 3.31104 4.41406 4.29467 4.41406 5.32031Z" stroke="#5E5F6E" stroke-linecap="round" stroke-linejoin="round"/>
<path d="M15.3125 16.9219C15.3125 17.4813 15.5347 18.0178 15.9303 18.4134C16.3259 18.809 16.8624 19.0312 17.4219 19.0312C17.9813 19.0312 18.5178 18.809 18.9134 18.4134C19.309 18.0178 19.5312 17.4813 19.5312 16.9219C19.5312 16.3624 19.309 15.8259 18.9134 15.4303C18.5178 15.0347 17.9813 14.8125 17.4219 14.8125C16.8624 14.8125 16.3259 15.0347 15.9303 15.4303C15.5347 15.8259 15.3125 16.3624 15.3125 16.9219Z" stroke="#5E5F6E" stroke-linecap="round" stroke-linejoin="round"/>
<path d="M19.5312 16.9228V17.9774C19.5312 18.4436 19.7164 18.8908 20.046 19.2204C20.3757 19.5501 20.8228 19.7353 21.289 19.7353C21.7551 19.735 22.2021 19.5497 22.5317 19.2201C22.8613 18.8905 23.0465 18.4436 23.0468 17.9774V17.1834C23.0709 15.6846 22.5137 14.2347 21.4921 13.1378C20.4705 12.0408 19.0638 11.3821 17.5671 11.2996C16.1743 11.256 14.8149 11.731 13.7523 12.6324C12.6897 13.5338 11.9995 14.7976 11.8154 16.1789C11.6314 17.5601 11.9665 18.9605 12.756 20.1088C13.5455 21.257 14.7331 22.0713 16.0887 22.394C17.0044 22.6103 17.9592 22.5984 18.8693 22.3593" stroke="#5E5F6E" stroke-linecap="round" stroke-linejoin="round"/>
</svg>
