<svg width="154" height="123" viewBox="0 0 154 123" fill="none" xmlns="http://www.w3.org/2000/svg">
<g opacity="0.3">
<path d="M0 41.5999C0 -3.24561 36.3545 -39.6001 81.2 -39.6001H174V35.7999C174 83.8486 135.049 122.8 87 122.8H81.2C36.3545 122.8 0 86.4454 0 41.5999Z" fill="#C8C9F4"/>
<path d="M25.2432 29.8196C25.2432 -8.51984 56.3234 -39.6001 94.6628 -39.6001H174V24.861C174 65.939 140.699 99.2393 99.6214 99.2393H94.6628C56.3234 99.2393 25.2432 68.159 25.2432 29.8196Z" fill="#AAACEE"/>
<path d="M53.1914 16.7771C53.1914 -14.3592 78.4323 -39.6001 109.569 -39.6001H174V12.7501C174 46.1104 146.956 73.1543 113.596 73.1543H109.569C78.4323 73.1543 53.1914 47.9134 53.1914 16.7771Z" fill="#8D8FE8"/>
</g>
</svg>
