<svg width="80" height="40" viewBox="0 0 80 40" fill="none" xmlns="http://www.w3.org/2000/svg">
<path d="M0 30.5205L8.30725 17.6501H0.978929C0.910994 17.2467 0.883817 16.8374 0.897807 16.4286C0.884579 16.0197 0.911751 15.6106 0.978929 15.207H12.7885L12.9445 15.6142L4.55456 28.4846H12.3829C12.4508 28.888 12.478 29.2973 12.464 29.7061C12.4806 30.0881 12.4534 30.4707 12.3829 30.8465H0.0819021L0 30.5205ZM23.8664 20.583C23.9117 20.1221 23.8549 19.6569 23.7 19.2205C23.5451 18.7841 23.2959 18.3872 22.9701 18.058C22.1827 17.5169 21.2353 17.2585 20.2822 17.3248C19.6005 17.3353 18.9202 17.3898 18.2455 17.4878C17.6384 17.5758 17.0393 17.712 16.4538 17.895C16.0374 17.1504 15.84 16.3032 15.8844 15.4512C16.6237 15.2024 17.3889 15.0384 18.1652 14.9621C18.9724 14.8268 19.791 14.7722 20.609 14.7991C22.2718 14.6951 23.9175 15.1858 25.2517 16.1836C26.311 17.0807 26.8804 18.6275 26.8804 20.6633V30.5189L24.2736 31.008C23.2502 31.1702 22.2143 31.2521 21.1784 31.2521C20.2767 31.2599 19.3844 31.1773 18.4905 31.008C17.7546 30.8606 17.0596 30.5547 16.4538 30.1117C15.8947 29.7153 15.446 29.1826 15.1504 28.5642C14.8084 27.8536 14.6408 27.0717 14.6613 26.2834C14.6269 25.4841 14.8246 24.6919 15.2307 24.0026C15.5595 23.3345 16.0671 22.7707 16.6972 22.3739C17.3544 21.9515 18.0671 21.6226 18.8149 21.3965C19.6355 21.1625 20.4865 21.0533 21.3399 21.0705C21.8841 21.0502 22.4291 21.0774 22.9686 21.1516C23.3757 21.1516 23.7018 21.2327 24.0278 21.2327V20.5814L23.8664 20.583ZM23.8664 23.5159C23.4826 23.4953 23.1012 23.4431 22.726 23.3599C22.2369 23.3599 21.829 23.2787 21.5045 23.2787C20.4748 23.2172 19.4511 23.4731 18.5716 24.012C18.25 24.26 17.9933 24.5822 17.8231 24.9509C17.6529 25.3197 17.5744 25.7241 17.5942 26.1297C17.5483 26.5789 17.6311 27.0319 17.833 27.4358C18.035 27.8397 18.3477 28.1778 18.7346 28.4105C19.0839 28.607 19.4746 28.7187 19.875 28.7366C20.2515 28.8014 20.6335 28.8285 21.0154 28.8177C21.5056 28.8313 21.9961 28.8042 22.4818 28.7366L23.7845 28.4924V23.5237L23.8664 23.5159ZM30.2197 15.207C30.4638 15.207 30.6268 15.1259 30.871 15.1259H32.1736C32.4178 15.1259 32.5808 15.207 32.825 15.207C32.8692 15.3388 32.8965 15.4756 32.9061 15.6142C32.9061 15.8584 32.9872 16.0214 32.9872 16.2655C32.9872 16.5097 33.0683 16.7546 33.0683 16.9988C33.066 17.1392 33.0941 17.2772 33.1494 17.4059L33.8827 16.4286C34.1992 16.1126 34.5552 15.8389 34.9419 15.6142C35.89 15.09 36.9537 14.8101 38.0371 14.7999C38.8951 14.789 39.7625 14.9559 40.562 15.289C41.3476 15.6049 42.0439 16.1084 42.5901 16.7554C43.1834 17.4748 43.6266 18.3057 43.8935 19.1992C44.2376 20.3341 44.4026 21.5158 44.3826 22.7015C44.5126 25.0259 43.7228 27.3081 42.1837 29.0548C40.7172 30.6024 38.6736 31.3356 35.9934 31.3356C35.5304 31.3492 35.0671 31.322 34.6089 31.2545C34.1201 31.1728 33.7129 31.0914 33.3873 31.0103V38.2599C33.1432 38.2599 32.8983 38.341 32.573 38.341H31.1066C30.8624 38.341 30.6175 38.2599 30.3733 38.2599V15.207H30.2197ZM33.2329 28.4035C33.629 28.5499 34.038 28.6591 34.4544 28.7295C34.9939 28.8038 35.5389 28.8309 36.0831 28.8107C36.7851 28.8286 37.4669 28.7171 38.1112 28.4846C38.7135 28.2784 39.2485 27.9123 39.6587 27.4253C40.1232 26.8707 40.4822 26.2357 40.718 25.5517C40.9973 24.6834 41.1348 23.7758 41.1252 22.8638C41.1763 21.5044 40.8671 20.1556 40.2289 18.9543C39.9188 18.4671 39.4821 18.0732 38.9655 17.815C38.449 17.5567 37.8719 17.4436 37.296 17.4878C36.7972 17.4893 36.302 17.5718 35.8296 17.732C35.3658 17.907 34.9481 18.1856 34.6081 18.5463C34.218 18.9419 33.913 19.4131 33.7118 19.9309C33.4661 20.5776 33.3551 21.2678 33.3858 21.9589V28.3941L33.2329 28.4035ZM48.058 17.5612H46.03C45.9569 17.3808 45.9291 17.1853 45.9488 16.9917V15.6891C45.9488 15.445 46.03 15.2819 46.03 15.1197H50.9987V30.9214C50.7546 30.9214 50.5096 31.0025 50.2655 31.0025H48.7991C48.5549 31.0025 48.31 30.9214 48.0658 30.9214L48.058 17.5612ZM57.5884 23.8326C57.6695 25.5431 58.0774 26.8466 58.891 27.5798C59.9307 28.4641 61.2771 28.903 62.6382 28.8013C64.0555 28.8091 65.4635 28.5618 66.7926 28.0681C66.9897 28.4234 67.1273 28.8087 67.1998 29.2085C67.2932 29.6369 67.348 30.0729 67.3636 30.5111C66.6626 30.8244 65.9232 31.0434 65.1647 31.1624C64.2786 31.3317 63.3707 31.4136 62.4768 31.4066C61.2294 31.4557 59.9844 31.2623 58.8107 30.8372C57.8686 30.3957 57.0134 29.7889 56.2857 29.0454C55.6093 28.2962 55.1084 27.4057 54.8193 26.4386C54.4859 25.385 54.3209 24.2855 54.3302 23.1804C54.3349 22.0822 54.4706 20.9964 54.7374 19.9223C55.0174 18.9685 55.4885 18.0816 56.1219 17.3155C56.7693 16.5877 57.5416 15.9894 58.4027 15.5237C59.4701 15.0151 60.6418 14.764 61.8239 14.7905C62.7456 14.7504 63.6645 14.9202 64.511 15.2871C65.3576 15.6539 66.1097 16.2083 66.7107 16.9083C67.2901 17.563 67.7084 18.344 67.9323 19.1891C68.238 20.1352 68.3769 21.1274 68.3394 22.122V23.019C68.3394 23.345 68.2583 23.5884 68.2583 23.8333L57.5884 23.8326ZM65.4081 21.5518C65.4127 20.9994 65.3303 20.4498 65.1639 19.9231C64.9965 19.4398 64.7782 18.9757 64.5126 18.5385C64.2123 18.1298 63.8221 17.7954 63.3722 17.5612C62.8642 17.3208 62.3049 17.2088 61.7435 17.2351C61.2142 17.2083 60.6853 17.2963 60.1932 17.4932C59.7011 17.69 59.2574 17.991 58.8926 18.3755C58.1714 19.2855 57.7453 20.3939 57.671 21.5525L65.4081 21.5518ZM71.7614 15.1993C72.0055 15.1993 72.1686 15.1181 72.4127 15.1181H73.7153C73.9595 15.1181 74.1225 15.1993 74.3667 15.1993C74.4719 15.598 74.5267 16.0084 74.5297 16.4208C74.5956 16.8517 74.6228 17.2876 74.6108 17.7234C75.0262 16.9955 75.6135 16.3803 76.3214 15.9317C77.1238 15.4237 78.0602 15.1682 79.0094 15.1985H79.4984C79.6395 15.1776 79.7834 15.2063 79.9056 15.2796C79.9056 15.4356 79.9867 15.6868 79.9867 15.849V16.5003C80 16.7475 79.9726 16.9952 79.9056 17.2336C79.9056 17.4777 79.8245 17.7226 79.8245 17.9668C79.6685 17.9668 79.4984 17.8857 79.3354 17.8857H78.9282C78.4024 17.8807 77.8794 17.9632 77.3807 18.1298C76.8617 18.289 76.3875 18.5679 75.9961 18.9441C75.5429 19.3996 75.2074 19.9586 75.0188 20.5728C74.7638 21.4172 74.6535 22.2986 74.6927 23.1797V31.0088C74.4486 31.0088 74.2036 31.0899 73.9595 31.0899H72.493C72.2489 31.0899 71.9236 31.0088 71.6787 31.0088V15.207L71.7614 15.1993ZM53.9222 5.92165H50.916L53.0338 3.80389C52.8778 3.55974 52.7077 3.39672 52.5447 3.15257C52.3106 2.98314 52.0926 2.79253 51.8934 2.58315L49.7694 4.69857V1.75789C49.5035 1.69066 49.229 1.66332 48.9551 1.67676C48.681 1.65924 48.4059 1.68665 48.1407 1.75789V4.7719L45.941 2.57223C45.6883 2.71728 45.4669 2.9111 45.2897 3.14243C45.1337 3.38658 44.8826 3.5496 44.7203 3.79375L46.8381 5.91151H43.8958L43.8147 6.72586C43.7963 7.0025 43.8237 7.28028 43.8958 7.548H46.9098L44.7102 9.74767C45.0323 10.2313 45.4473 10.6478 45.9317 10.9692L48.0494 8.85142V11.8654C48.3154 11.9327 48.5898 11.96 48.8638 11.9466C49.1379 11.9641 49.4129 11.9367 49.6781 11.8654V8.85142L51.7959 10.9692C52.0486 10.8241 52.27 10.6303 52.4472 10.399C52.6572 10.2004 52.8479 9.98232 53.0166 9.74767L50.916 7.63146H53.93C53.9973 7.36553 54.0246 7.09109 54.0112 6.81712C54.0283 6.51575 54.001 6.21349 53.93 5.92009L53.9222 5.92165ZM50.175 6.736C50.1674 7.09477 50.1123 7.45096 50.0112 7.79527C49.6758 7.92787 49.3131 7.98247 48.9519 7.95127C48.5932 7.94368 48.237 7.8886 47.8927 7.78747C47.7601 7.45206 47.7055 7.08935 47.7367 6.7282C47.7443 6.36942 47.7993 6.01323 47.9005 5.66892C48.2359 5.53632 48.5986 5.48172 48.9597 5.51292C49.3185 5.52051 49.6747 5.57559 50.019 5.67672C50.113 6.02256 50.1677 6.3779 50.182 6.736H50.175Z" fill="#5E5F6E"/>
</svg>
